%TF.GenerationSoftware,KiCad,Pcbnew,7.0.10+dfsg-1*%
%TF.CreationDate,2024-01-16T13:03:33+01:00*%
%TF.ProjectId,C64NIKI2,4336344e-494b-4493-922e-6b696361645f,rev?*%
%TF.SameCoordinates,Original*%
%TF.FileFunction,Soldermask,Bot*%
%TF.FilePolarity,Negative*%
%FSLAX46Y46*%
G04 Gerber Fmt 4.6, Leading zero omitted, Abs format (unit mm)*
G04 Created by KiCad (PCBNEW 7.0.10+dfsg-1) date 2024-01-16 13:03:33*
%MOMM*%
%LPD*%
G01*
G04 APERTURE LIST*
%ADD10R,1.600000X1.600000*%
%ADD11O,1.600000X1.600000*%
%ADD12C,1.600000*%
%ADD13R,2.540000X3.871726*%
%ADD14R,1.500000X1.500000*%
%ADD15C,1.500000*%
%ADD16R,1.000000X1.500000*%
%ADD17C,7.000000*%
%ADD18R,58.420000X8.300000*%
%ADD19R,1.524000X8.000000*%
G04 APERTURE END LIST*
D10*
%TO.C,U4*%
X131572000Y-121920000D03*
D11*
X134112000Y-121920000D03*
X136652000Y-121920000D03*
X139192000Y-121920000D03*
X141732000Y-121920000D03*
X144272000Y-121920000D03*
X146812000Y-121920000D03*
X146812000Y-114300000D03*
X144272000Y-114300000D03*
X141732000Y-114300000D03*
X139192000Y-114300000D03*
X136652000Y-114300000D03*
X134112000Y-114300000D03*
X131572000Y-114300000D03*
%TD*%
D12*
%TO.C,C3*%
X141010000Y-111125000D03*
X146010000Y-111125000D03*
%TD*%
D10*
%TO.C,U1*%
X95504000Y-104140000D03*
D11*
X98044000Y-104140000D03*
X100584000Y-104140000D03*
X103124000Y-104140000D03*
X105664000Y-104140000D03*
X108204000Y-104140000D03*
X110744000Y-104140000D03*
X110744000Y-96520000D03*
X108204000Y-96520000D03*
X105664000Y-96520000D03*
X103124000Y-96520000D03*
X100584000Y-96520000D03*
X98044000Y-96520000D03*
X95504000Y-96520000D03*
%TD*%
D12*
%TO.C,R3*%
X138430000Y-111125000D03*
D11*
X128270000Y-111125000D03*
%TD*%
D13*
%TO.C,SW1*%
X135890000Y-103916863D03*
%TD*%
D14*
%TO.C,Q1*%
X120650000Y-109085000D03*
D15*
X118110000Y-111625000D03*
X115570000Y-109085000D03*
%TD*%
D12*
%TO.C,R1*%
X105664000Y-110490000D03*
D11*
X95504000Y-110490000D03*
%TD*%
D12*
%TO.C,C4*%
X121920000Y-124460000D03*
X121920000Y-119460000D03*
%TD*%
D10*
%TO.C,D4*%
X125730000Y-100330000D03*
D11*
X115570000Y-100330000D03*
%TD*%
D10*
%TO.C,U2*%
X95504000Y-121920000D03*
D11*
X98044000Y-121920000D03*
X100584000Y-121920000D03*
X103124000Y-121920000D03*
X105664000Y-121920000D03*
X108204000Y-121920000D03*
X110744000Y-121920000D03*
X113284000Y-121920000D03*
X113284000Y-114300000D03*
X110744000Y-114300000D03*
X108204000Y-114300000D03*
X105664000Y-114300000D03*
X103124000Y-114300000D03*
X100584000Y-114300000D03*
X98044000Y-114300000D03*
X95504000Y-114300000D03*
%TD*%
D12*
%TO.C,C2*%
X97957000Y-126365000D03*
X102957000Y-126365000D03*
%TD*%
%TO.C,C1*%
X147320000Y-149900000D03*
X147320000Y-154900000D03*
%TD*%
D16*
%TO.C,JP1*%
X107920000Y-154305000D03*
X109220000Y-154305000D03*
X110520000Y-154305000D03*
%TD*%
D10*
%TO.C,U3*%
X95504000Y-137160000D03*
D11*
X98044000Y-137160000D03*
X100584000Y-137160000D03*
X103124000Y-137160000D03*
X105664000Y-137160000D03*
X108204000Y-137160000D03*
X110744000Y-137160000D03*
X110744000Y-129540000D03*
X108204000Y-129540000D03*
X105664000Y-129540000D03*
X103124000Y-129540000D03*
X100584000Y-129540000D03*
X98044000Y-129540000D03*
X95504000Y-129540000D03*
%TD*%
D12*
%TO.C,R2*%
X136271000Y-127000000D03*
D11*
X126111000Y-127000000D03*
%TD*%
D10*
%TO.C,D2*%
X102362000Y-149860000D03*
D11*
X102362000Y-160020000D03*
%TD*%
D12*
%TO.C,R4*%
X125730000Y-114300000D03*
D11*
X125730000Y-124460000D03*
%TD*%
D10*
%TO.C,D1*%
X95250000Y-149860000D03*
D11*
X95250000Y-160020000D03*
%TD*%
D16*
%TO.C,JP2*%
X110617000Y-151003000D03*
X109317000Y-151003000D03*
X108017000Y-151003000D03*
%TD*%
D10*
%TO.C,D6*%
X118110000Y-124460000D03*
D11*
X118110000Y-114300000D03*
%TD*%
D10*
%TO.C,D7*%
X147320000Y-124460000D03*
D11*
X137160000Y-124460000D03*
%TD*%
D10*
%TO.C,D3*%
X125730000Y-96520000D03*
D11*
X115570000Y-96520000D03*
%TD*%
D10*
%TO.C,U6*%
X107950000Y-160020000D03*
D11*
X110490000Y-160020000D03*
X113030000Y-160020000D03*
X115570000Y-160020000D03*
X118110000Y-160020000D03*
X120650000Y-160020000D03*
X123190000Y-160020000D03*
X125730000Y-160020000D03*
X128270000Y-160020000D03*
X130810000Y-160020000D03*
X133350000Y-160020000D03*
X135890000Y-160020000D03*
X138430000Y-160020000D03*
X140970000Y-160020000D03*
X140970000Y-144780000D03*
X138430000Y-144780000D03*
X135890000Y-144780000D03*
X133350000Y-144780000D03*
X130810000Y-144780000D03*
X128270000Y-144780000D03*
X125730000Y-144780000D03*
X123190000Y-144780000D03*
X120650000Y-144780000D03*
X118110000Y-144780000D03*
X115570000Y-144780000D03*
X113030000Y-144780000D03*
X110490000Y-144780000D03*
X107950000Y-144780000D03*
%TD*%
D17*
%TO.C,J1*%
X120650000Y-132716274D03*
D18*
X120650000Y-172848274D03*
D19*
X93980000Y-172720000D03*
X96520000Y-172720000D03*
X99060000Y-172720000D03*
X101600000Y-172720000D03*
X104140000Y-172720000D03*
X106680000Y-172720000D03*
X109220000Y-172720000D03*
X111760000Y-172720000D03*
X114300000Y-172720000D03*
X116840000Y-172720000D03*
X119380000Y-172720000D03*
X121920000Y-172720000D03*
X124460000Y-172720000D03*
X127000000Y-172720000D03*
X129540000Y-172720000D03*
X132080000Y-172720000D03*
X134620000Y-172720000D03*
X137160000Y-172720000D03*
X139700000Y-172720000D03*
X142240000Y-172720000D03*
X144780000Y-172720000D03*
X147320000Y-172720000D03*
%TD*%
D10*
%TO.C,U5*%
X129032000Y-137160000D03*
D11*
X131572000Y-137160000D03*
X134112000Y-137160000D03*
X136652000Y-137160000D03*
X139192000Y-137160000D03*
X141732000Y-137160000D03*
X144272000Y-137160000D03*
X146812000Y-137160000D03*
X146812000Y-129540000D03*
X144272000Y-129540000D03*
X141732000Y-129540000D03*
X139192000Y-129540000D03*
X136652000Y-129540000D03*
X134112000Y-129540000D03*
X131572000Y-129540000D03*
X129032000Y-129540000D03*
%TD*%
D10*
%TO.C,D5*%
X125730000Y-104140000D03*
D11*
X115570000Y-104140000D03*
%TD*%
D13*
%TO.C,SW2*%
X144780000Y-103916863D03*
%TD*%
M02*
