%TF.GenerationSoftware,KiCad,Pcbnew,7.0.9+dfsg-1*%
%TF.CreationDate,2024-02-03T10:56:28+01:00*%
%TF.ProjectId,C64NIKI2,4336344e-494b-4493-922e-6b696361645f,rev?*%
%TF.SameCoordinates,Original*%
%TF.FileFunction,Copper,L1,Top*%
%TF.FilePolarity,Positive*%
%FSLAX46Y46*%
G04 Gerber Fmt 4.6, Leading zero omitted, Abs format (unit mm)*
G04 Created by KiCad (PCBNEW 7.0.9+dfsg-1) date 2024-02-03 10:56:28*
%MOMM*%
%LPD*%
G01*
G04 APERTURE LIST*
%TA.AperFunction,ComponentPad*%
%ADD10R,1.600000X1.600000*%
%TD*%
%TA.AperFunction,ComponentPad*%
%ADD11O,1.600000X1.600000*%
%TD*%
%TA.AperFunction,ComponentPad*%
%ADD12C,1.600000*%
%TD*%
%TA.AperFunction,SMDPad,CuDef*%
%ADD13R,2.540000X3.871726*%
%TD*%
%TA.AperFunction,ComponentPad*%
%ADD14R,1.500000X1.500000*%
%TD*%
%TA.AperFunction,ComponentPad*%
%ADD15C,1.500000*%
%TD*%
%TA.AperFunction,ComponentPad*%
%ADD16C,7.000000*%
%TD*%
%TA.AperFunction,SMDPad,CuDef*%
%ADD17R,1.524000X8.000000*%
%TD*%
%TA.AperFunction,ViaPad*%
%ADD18C,0.600000*%
%TD*%
%TA.AperFunction,Conductor*%
%ADD19C,0.200000*%
%TD*%
%TA.AperFunction,Conductor*%
%ADD20C,0.500000*%
%TD*%
G04 APERTURE END LIST*
D10*
%TO.P,U4,1*%
%TO.N,Net-(U5-Q2)*%
X131572000Y-121920000D03*
D11*
%TO.P,U4,2*%
%TO.N,Net-(U3-Pad10)*%
X134112000Y-121920000D03*
%TO.P,U4,3*%
%TO.N,Net-(U5-Q1)*%
X136652000Y-121920000D03*
%TO.P,U4,4*%
%TO.N,/EXROM*%
X139192000Y-121920000D03*
%TO.P,U4,5*%
%TO.N,GND*%
X141732000Y-121920000D03*
%TO.P,U4,6*%
%TO.N,unconnected-(U4-Pad6)*%
X144272000Y-121920000D03*
%TO.P,U4,7,GND*%
%TO.N,GND*%
X146812000Y-121920000D03*
%TO.P,U4,8*%
%TO.N,unconnected-(U4-Pad8)*%
X146812000Y-114300000D03*
%TO.P,U4,9*%
%TO.N,GND*%
X144272000Y-114300000D03*
%TO.P,U4,10*%
%TO.N,unconnected-(U4-Pad10)*%
X141732000Y-114300000D03*
%TO.P,U4,11*%
%TO.N,GND*%
X139192000Y-114300000D03*
%TO.P,U4,12*%
%TO.N,unconnected-(U4-Pad12)*%
X136652000Y-114300000D03*
%TO.P,U4,13*%
%TO.N,GND*%
X134112000Y-114300000D03*
%TO.P,U4,14,VCC*%
%TO.N,VCC*%
X131572000Y-114300000D03*
%TD*%
D12*
%TO.P,C3,1*%
%TO.N,Net-(Q1-B)*%
X141010000Y-111125000D03*
%TO.P,C3,2*%
%TO.N,GND*%
X146010000Y-111125000D03*
%TD*%
D10*
%TO.P,U1,1,~{R}*%
%TO.N,Net-(D4-A)*%
X95504000Y-104140000D03*
D11*
%TO.P,U1,2,D*%
%TO.N,VCC*%
X98044000Y-104140000D03*
%TO.P,U1,3,C*%
%TO.N,Net-(U1A-C)*%
X100584000Y-104140000D03*
%TO.P,U1,4,~{S}*%
%TO.N,VCC*%
X103124000Y-104140000D03*
%TO.P,U1,5,Q*%
%TO.N,Net-(U1A-Q)*%
X105664000Y-104140000D03*
%TO.P,U1,6,~{Q}*%
%TO.N,Net-(D3-A)*%
X108204000Y-104140000D03*
%TO.P,U1,7,GND*%
%TO.N,GND*%
X110744000Y-104140000D03*
%TO.P,U1,8,~{Q}*%
%TO.N,Net-(D1-K)*%
X110744000Y-96520000D03*
%TO.P,U1,9,Q*%
%TO.N,Net-(D5-K)*%
X108204000Y-96520000D03*
%TO.P,U1,10,~{S}*%
%TO.N,VCC*%
X105664000Y-96520000D03*
%TO.P,U1,11,C*%
%TO.N,Net-(U1B-C)*%
X103124000Y-96520000D03*
%TO.P,U1,12,D*%
%TO.N,VCC*%
X100584000Y-96520000D03*
%TO.P,U1,13,~{R}*%
%TO.N,Net-(D3-A)*%
X98044000Y-96520000D03*
%TO.P,U1,14,VCC*%
%TO.N,VCC*%
X95504000Y-96520000D03*
%TD*%
D12*
%TO.P,R3,1*%
%TO.N,Net-(Q1-B)*%
X138430000Y-111125000D03*
D11*
%TO.P,R3,2*%
%TO.N,Net-(U5-Q5)*%
X128270000Y-111125000D03*
%TD*%
D13*
%TO.P,SW1,1,1*%
%TO.N,Net-(U1B-C)*%
X135890000Y-103916863D03*
%TD*%
D14*
%TO.P,Q1,1,C*%
%TO.N,Net-(D4-A)*%
X120650000Y-109085000D03*
D15*
%TO.P,Q1,2,B*%
%TO.N,Net-(Q1-B)*%
X118110000Y-111625000D03*
%TO.P,Q1,3,E*%
%TO.N,GND*%
X115570000Y-109085000D03*
%TD*%
D12*
%TO.P,R1,1*%
%TO.N,Net-(D4-A)*%
X105664000Y-110490000D03*
D11*
%TO.P,R1,2*%
%TO.N,VCC*%
X95504000Y-110490000D03*
%TD*%
D12*
%TO.P,C4,1*%
%TO.N,VCC*%
X121920000Y-124460000D03*
%TO.P,C4,2*%
%TO.N,GND*%
X121920000Y-119460000D03*
%TD*%
D10*
%TO.P,D4,1,K*%
%TO.N,/RESET*%
X125730000Y-100330000D03*
D11*
%TO.P,D4,2,A*%
%TO.N,Net-(D4-A)*%
X115570000Y-100330000D03*
%TD*%
D10*
%TO.P,U2,1,~{MR}*%
%TO.N,VCC*%
X95504000Y-121920000D03*
D11*
%TO.P,U2,2,CP*%
%TO.N,/PHI2*%
X98044000Y-121920000D03*
%TO.P,U2,3,D0*%
%TO.N,unconnected-(U2-D0-Pad3)*%
X100584000Y-121920000D03*
%TO.P,U2,4,D1*%
%TO.N,unconnected-(U2-D1-Pad4)*%
X103124000Y-121920000D03*
%TO.P,U2,5,D2*%
%TO.N,unconnected-(U2-D2-Pad5)*%
X105664000Y-121920000D03*
%TO.P,U2,6,D3*%
%TO.N,unconnected-(U2-D3-Pad6)*%
X108204000Y-121920000D03*
%TO.P,U2,7,CEP*%
%TO.N,unconnected-(U2-CEP-Pad7)*%
X110744000Y-121920000D03*
%TO.P,U2,8,GND*%
%TO.N,GND*%
X113284000Y-121920000D03*
%TO.P,U2,9,~{PE}*%
%TO.N,Net-(D5-A)*%
X113284000Y-114300000D03*
%TO.P,U2,10,CET*%
%TO.N,unconnected-(U2-CET-Pad10)*%
X110744000Y-114300000D03*
%TO.P,U2,11,Q3*%
%TO.N,unconnected-(U2-Q3-Pad11)*%
X108204000Y-114300000D03*
%TO.P,U2,12,Q2*%
%TO.N,Net-(U1A-C)*%
X105664000Y-114300000D03*
%TO.P,U2,13,Q1*%
%TO.N,unconnected-(U2-Q1-Pad13)*%
X103124000Y-114300000D03*
%TO.P,U2,14,Q0*%
%TO.N,unconnected-(U2-Q0-Pad14)*%
X100584000Y-114300000D03*
%TO.P,U2,15,TC*%
%TO.N,unconnected-(U2-TC-Pad15)*%
X98044000Y-114300000D03*
%TO.P,U2,16,VCC*%
%TO.N,VCC*%
X95504000Y-114300000D03*
%TD*%
D12*
%TO.P,C2,1*%
%TO.N,GND*%
X97957000Y-126365000D03*
%TO.P,C2,2*%
%TO.N,/IO1*%
X102957000Y-126365000D03*
%TD*%
%TO.P,C1,1*%
%TO.N,/EXROM*%
X147320000Y-149900000D03*
%TO.P,C1,2*%
%TO.N,GND*%
X147320000Y-154900000D03*
%TD*%
D10*
%TO.P,U3,1*%
%TO.N,/GAME*%
X95504000Y-137160000D03*
D11*
%TO.P,U3,2*%
%TO.N,/ROMH*%
X98044000Y-137160000D03*
%TO.P,U3,3*%
%TO.N,Net-(U6-~{CE})*%
X100584000Y-137160000D03*
%TO.P,U3,4*%
%TO.N,Net-(D3-A)*%
X103124000Y-137160000D03*
%TO.P,U3,5*%
%TO.N,Net-(U5-Q2)*%
X105664000Y-137160000D03*
%TO.P,U3,6*%
%TO.N,/GAME*%
X108204000Y-137160000D03*
%TO.P,U3,7,GND*%
%TO.N,GND*%
X110744000Y-137160000D03*
%TO.P,U3,8*%
%TO.N,Net-(U6-~{CE})*%
X110744000Y-129540000D03*
%TO.P,U3,9*%
%TO.N,/ROML*%
X108204000Y-129540000D03*
%TO.P,U3,10*%
%TO.N,Net-(U3-Pad10)*%
X105664000Y-129540000D03*
%TO.P,U3,11*%
%TO.N,Net-(U6-~{CE})*%
X103124000Y-129540000D03*
%TO.P,U3,12*%
%TO.N,/IO2*%
X100584000Y-129540000D03*
%TO.P,U3,13*%
%TO.N,Net-(U3-Pad10)*%
X98044000Y-129540000D03*
%TO.P,U3,14,VCC*%
%TO.N,VCC*%
X95504000Y-129540000D03*
%TD*%
D12*
%TO.P,R2,1*%
%TO.N,VCC*%
X136271000Y-127000000D03*
D11*
%TO.P,R2,2*%
%TO.N,Net-(U6-~{CE})*%
X126111000Y-127000000D03*
%TD*%
D10*
%TO.P,D2,1,K*%
%TO.N,Net-(D1-K)*%
X102362000Y-149860000D03*
D11*
%TO.P,D2,2,A*%
%TO.N,/NMI*%
X102362000Y-160020000D03*
%TD*%
D12*
%TO.P,R4,1*%
%TO.N,Net-(U1B-C)*%
X125730000Y-114300000D03*
D11*
%TO.P,R4,2*%
%TO.N,VCC*%
X125730000Y-124460000D03*
%TD*%
D10*
%TO.P,D1,1,K*%
%TO.N,Net-(D1-K)*%
X95250000Y-149860000D03*
D11*
%TO.P,D1,2,A*%
%TO.N,/IRQ*%
X95250000Y-160020000D03*
%TD*%
D10*
%TO.P,D6,1,K*%
%TO.N,/BA*%
X118110000Y-124460000D03*
D11*
%TO.P,D6,2,A*%
%TO.N,Net-(D5-A)*%
X118110000Y-114300000D03*
%TD*%
D10*
%TO.P,D7,1,K*%
%TO.N,/RESET*%
X147320000Y-124460000D03*
D11*
%TO.P,D7,2,A*%
%TO.N,/EXROM*%
X137160000Y-124460000D03*
%TD*%
D10*
%TO.P,D3,1,K*%
%TO.N,/RESET*%
X125730000Y-96520000D03*
D11*
%TO.P,D3,2,A*%
%TO.N,Net-(D3-A)*%
X115570000Y-96520000D03*
%TD*%
D10*
%TO.P,U6,1,VPP*%
%TO.N,Net-(JP1-C)*%
X107950000Y-160020000D03*
D11*
%TO.P,U6,2,A12*%
%TO.N,/A12*%
X110490000Y-160020000D03*
%TO.P,U6,3,A7*%
%TO.N,/A7*%
X113030000Y-160020000D03*
%TO.P,U6,4,A6*%
%TO.N,/A6*%
X115570000Y-160020000D03*
%TO.P,U6,5,A5*%
%TO.N,/A5*%
X118110000Y-160020000D03*
%TO.P,U6,6,A4*%
%TO.N,/A4*%
X120650000Y-160020000D03*
%TO.P,U6,7,A3*%
%TO.N,/A3*%
X123190000Y-160020000D03*
%TO.P,U6,8,A2*%
%TO.N,/A2*%
X125730000Y-160020000D03*
%TO.P,U6,9,A1*%
%TO.N,/A1*%
X128270000Y-160020000D03*
%TO.P,U6,10,A0*%
%TO.N,/A0*%
X130810000Y-160020000D03*
%TO.P,U6,11,D0*%
%TO.N,/D0*%
X133350000Y-160020000D03*
%TO.P,U6,12,D1*%
%TO.N,/D1*%
X135890000Y-160020000D03*
%TO.P,U6,13,D2*%
%TO.N,/D2*%
X138430000Y-160020000D03*
%TO.P,U6,14,GND*%
%TO.N,GND*%
X140970000Y-160020000D03*
%TO.P,U6,15,D3*%
%TO.N,/D3*%
X140970000Y-144780000D03*
%TO.P,U6,16,D4*%
%TO.N,/D4*%
X138430000Y-144780000D03*
%TO.P,U6,17,D5*%
%TO.N,/D5*%
X135890000Y-144780000D03*
%TO.P,U6,18,D6*%
%TO.N,/D6*%
X133350000Y-144780000D03*
%TO.P,U6,19,D7*%
%TO.N,/D7*%
X130810000Y-144780000D03*
%TO.P,U6,20,~{CE}*%
%TO.N,Net-(U6-~{CE})*%
X128270000Y-144780000D03*
%TO.P,U6,21,A10*%
%TO.N,/A10*%
X125730000Y-144780000D03*
%TO.P,U6,22,~{OE}*%
%TO.N,Net-(U6-~{CE})*%
X123190000Y-144780000D03*
%TO.P,U6,23,A11*%
%TO.N,/A11*%
X120650000Y-144780000D03*
%TO.P,U6,24,A9*%
%TO.N,/A9*%
X118110000Y-144780000D03*
%TO.P,U6,25,A8*%
%TO.N,/A8*%
X115570000Y-144780000D03*
%TO.P,U6,26,A13*%
%TO.N,Net-(U5-Q3)*%
X113030000Y-144780000D03*
%TO.P,U6,27,A14*%
%TO.N,Net-(JP2-C)*%
X110490000Y-144780000D03*
%TO.P,U6,28,VCC*%
%TO.N,VCC*%
X107950000Y-144780000D03*
%TD*%
D16*
%TO.P,J1,*%
%TO.N,*%
X120650000Y-132716274D03*
D17*
%TO.P,J1,1,Pin_1*%
%TO.N,GND*%
X93980000Y-172720000D03*
%TO.P,J1,2,Pin_2*%
%TO.N,VCC*%
X96520000Y-172720000D03*
%TO.P,J1,3,Pin_3*%
X99060000Y-172720000D03*
%TO.P,J1,4,Pin_4*%
%TO.N,/IRQ*%
X101600000Y-172720000D03*
%TO.P,J1,5,Pin_5*%
%TO.N,/RW*%
X104140000Y-172720000D03*
%TO.P,J1,6,Pin_6*%
%TO.N,/DOTC*%
X106680000Y-172720000D03*
%TO.P,J1,7,Pin_7*%
%TO.N,/IO1*%
X109220000Y-172720000D03*
%TO.P,J1,8,Pin_8*%
%TO.N,/GAME*%
X111760000Y-172720000D03*
%TO.P,J1,9,Pin_9*%
%TO.N,/EXROM*%
X114300000Y-172720000D03*
%TO.P,J1,10,Pin_10*%
%TO.N,/IO2*%
X116840000Y-172720000D03*
%TO.P,J1,11,Pin_11*%
%TO.N,/ROML*%
X119380000Y-172720000D03*
%TO.P,J1,12,Pin_12*%
%TO.N,/BA*%
X121920000Y-172720000D03*
%TO.P,J1,13,Pin_13*%
%TO.N,/DMA*%
X124460000Y-172720000D03*
%TO.P,J1,14,Pin_14*%
%TO.N,/D7*%
X127000000Y-172720000D03*
%TO.P,J1,15,Pin_15*%
%TO.N,/D6*%
X129540000Y-172720000D03*
%TO.P,J1,16,Pin_16*%
%TO.N,/D5*%
X132080000Y-172720000D03*
%TO.P,J1,17,Pin_17*%
%TO.N,/D4*%
X134620000Y-172720000D03*
%TO.P,J1,18,Pin_18*%
%TO.N,/D3*%
X137160000Y-172720000D03*
%TO.P,J1,19,Pin_19*%
%TO.N,/D2*%
X139700000Y-172720000D03*
%TO.P,J1,20,Pin_20*%
%TO.N,/D1*%
X142240000Y-172720000D03*
%TO.P,J1,21,Pin_21*%
%TO.N,/D0*%
X144780000Y-172720000D03*
%TO.P,J1,22,Pin_22*%
%TO.N,GND*%
X147320000Y-172720000D03*
%TD*%
D10*
%TO.P,U5,1,~{Mr}*%
%TO.N,Net-(U1A-Q)*%
X129032000Y-137160000D03*
D11*
%TO.P,U5,2,Q0*%
%TO.N,Net-(JP1-B)*%
X131572000Y-137160000D03*
%TO.P,U5,3,D0*%
%TO.N,/D4*%
X134112000Y-137160000D03*
%TO.P,U5,4,D1*%
%TO.N,/D3*%
X136652000Y-137160000D03*
%TO.P,U5,5,Q1*%
%TO.N,Net-(U5-Q1)*%
X139192000Y-137160000D03*
%TO.P,U5,6,D2*%
%TO.N,/D1*%
X141732000Y-137160000D03*
%TO.P,U5,7,Q2*%
%TO.N,Net-(U5-Q2)*%
X144272000Y-137160000D03*
%TO.P,U5,8,GND*%
%TO.N,GND*%
X146812000Y-137160000D03*
%TO.P,U5,9,Cp*%
%TO.N,/IO1*%
X146812000Y-129540000D03*
%TO.P,U5,10,Q3*%
%TO.N,Net-(U5-Q3)*%
X144272000Y-129540000D03*
%TO.P,U5,11,D3*%
%TO.N,/D0*%
X141732000Y-129540000D03*
%TO.P,U5,12,Q4*%
%TO.N,unconnected-(U5-Q4-Pad12)*%
X139192000Y-129540000D03*
%TO.P,U5,13,D4*%
%TO.N,unconnected-(U5-D4-Pad13)*%
X136652000Y-129540000D03*
%TO.P,U5,14,D5*%
%TO.N,/D2*%
X134112000Y-129540000D03*
%TO.P,U5,15,Q5*%
%TO.N,Net-(U5-Q5)*%
X131572000Y-129540000D03*
%TO.P,U5,16,VCC*%
%TO.N,VCC*%
X129032000Y-129540000D03*
%TD*%
D10*
%TO.P,D5,1,K*%
%TO.N,Net-(D5-K)*%
X125730000Y-104140000D03*
D11*
%TO.P,D5,2,A*%
%TO.N,Net-(D5-A)*%
X115570000Y-104140000D03*
%TD*%
D13*
%TO.P,SW2,1,1*%
%TO.N,/RESET*%
X144780000Y-103916863D03*
%TD*%
D18*
%TO.N,VCC*%
X127000000Y-140462000D03*
X95250000Y-146685000D03*
%TO.N,Net-(U6-~{CE})*%
X113411000Y-130937000D03*
%TO.N,GND*%
X115617000Y-119460000D03*
X147320000Y-160020000D03*
%TO.N,/D0*%
X144780000Y-156845000D03*
%TO.N,/D1*%
X143002000Y-157988000D03*
%TO.N,/A10*%
X116840000Y-154178000D03*
X119380000Y-167005000D03*
%TO.N,/A11*%
X111760000Y-149352000D03*
X111760000Y-157480000D03*
%TO.N,/A9*%
X118110000Y-147955000D03*
X121920000Y-167005000D03*
%TO.N,/A8*%
X124460000Y-167005000D03*
%TO.N,Net-(U5-Q3)*%
X132842000Y-134366000D03*
X132842000Y-142240000D03*
%TO.N,Net-(JP1-C)*%
X107950000Y-156845000D03*
%TO.N,Net-(U1A-Q)*%
X129540000Y-116205000D03*
%TO.N,Net-(U5-Q2)*%
X144780000Y-120015000D03*
X105664000Y-135128000D03*
%TO.N,Net-(JP1-B)*%
X125730000Y-148590000D03*
%TO.N,/PHI2*%
X103632000Y-166878000D03*
%TO.N,/EXROM*%
X110617000Y-156210000D03*
%TO.N,/ROMH*%
X96520000Y-166370000D03*
X94234000Y-135128000D03*
%TO.N,Net-(D1-K)*%
X105410000Y-149860000D03*
X110490000Y-111760000D03*
%TO.N,/IO2*%
X109220000Y-157480000D03*
%TO.N,/RESET*%
X129413000Y-107442000D03*
X143637000Y-111379000D03*
X99060000Y-166370000D03*
%TO.N,/IRQ*%
X100584000Y-163576000D03*
%TD*%
D19*
%TO.N,Net-(U1B-C)*%
X128524000Y-103947726D02*
X128524000Y-107315000D01*
X135890000Y-103916863D02*
X128554863Y-103916863D01*
X103124000Y-93345000D02*
X103505000Y-92964000D01*
X103505000Y-92964000D02*
X128143000Y-92964000D01*
X103124000Y-93345000D02*
X103124000Y-96520000D01*
X128524000Y-93345000D02*
X128524000Y-103947726D01*
X128554863Y-103916863D02*
X128524000Y-103947726D01*
X128143000Y-92964000D02*
X128524000Y-93345000D01*
X125730000Y-110109000D02*
X125730000Y-114300000D01*
X128524000Y-107315000D02*
X125730000Y-110109000D01*
D20*
%TO.N,VCC*%
X131572000Y-114300000D02*
X128270000Y-114300000D01*
X105537000Y-99441000D02*
X105791000Y-99187000D01*
X127762000Y-124460000D02*
X125730000Y-124460000D01*
X92710000Y-146685000D02*
X95250000Y-146685000D01*
X100584000Y-99441000D02*
X95758000Y-99441000D01*
X105791000Y-96647000D02*
X105664000Y-96520000D01*
X128270000Y-114300000D02*
X127762000Y-114808000D01*
X96520000Y-172720000D02*
X96520000Y-167640000D01*
X92720000Y-121910000D02*
X92720000Y-129530000D01*
X95758000Y-99441000D02*
X95504000Y-99187000D01*
X92720000Y-114290000D02*
X92720000Y-121910000D01*
X95504000Y-99187000D02*
X95504000Y-96520000D01*
X95504000Y-110490000D02*
X95504000Y-114300000D01*
X127762000Y-126238000D02*
X129032000Y-127508000D01*
X129032000Y-127508000D02*
X129032000Y-129540000D01*
X99060000Y-167640000D02*
X99060000Y-172720000D01*
X92710000Y-114300000D02*
X92720000Y-114290000D01*
X100584000Y-99441000D02*
X105537000Y-99441000D01*
X92710000Y-146685000D02*
X92710000Y-129540000D01*
X125730000Y-124460000D02*
X121920000Y-124460000D01*
X92710000Y-96901000D02*
X92710000Y-114300000D01*
X95494000Y-114290000D02*
X92720000Y-114290000D01*
X92720000Y-121910000D02*
X95494000Y-121910000D01*
X96520000Y-167640000D02*
X99060000Y-167640000D01*
X95504000Y-114300000D02*
X95494000Y-114290000D01*
X95494000Y-121910000D02*
X95504000Y-121920000D01*
X92710000Y-165100000D02*
X95250000Y-167640000D01*
X100584000Y-96520000D02*
X100584000Y-99441000D01*
X127762000Y-114808000D02*
X127762000Y-124460000D01*
X92720000Y-121910000D02*
X92710000Y-121920000D01*
X92710000Y-129540000D02*
X92720000Y-129530000D01*
X129032000Y-134239000D02*
X129032000Y-129540000D01*
X93091000Y-96520000D02*
X92710000Y-96901000D01*
X127000000Y-136271000D02*
X129032000Y-134239000D01*
X95250000Y-167640000D02*
X96520000Y-167640000D01*
X127762000Y-124460000D02*
X127762000Y-126238000D01*
X95504000Y-96520000D02*
X93091000Y-96520000D01*
X92710000Y-146685000D02*
X92710000Y-165100000D01*
X105791000Y-99187000D02*
X105791000Y-96647000D01*
X127000000Y-140462000D02*
X127000000Y-136271000D01*
X95494000Y-129530000D02*
X95504000Y-129540000D01*
X92720000Y-129530000D02*
X95494000Y-129530000D01*
D19*
%TO.N,Net-(Q1-B)*%
X141010000Y-111125000D02*
X138430000Y-111125000D01*
%TO.N,Net-(U5-Q5)*%
X132842000Y-113284000D02*
X132842000Y-123952000D01*
X128270000Y-111125000D02*
X130683000Y-111125000D01*
X130683000Y-111125000D02*
X132842000Y-113284000D01*
X132842000Y-123952000D02*
X131572000Y-125222000D01*
X131572000Y-125222000D02*
X131572000Y-129540000D01*
%TO.N,Net-(U6-~{CE})*%
X113411000Y-129286000D02*
X116967000Y-125730000D01*
X128270000Y-146304000D02*
X127762000Y-146812000D01*
X116967000Y-125730000D02*
X124841000Y-125730000D01*
X113411000Y-139192000D02*
X114681000Y-140462000D01*
X113411000Y-130937000D02*
X113411000Y-139192000D01*
X122174000Y-140462000D02*
X123190000Y-141478000D01*
X128270000Y-144780000D02*
X128270000Y-146304000D01*
X123698000Y-146812000D02*
X123190000Y-146304000D01*
X113411000Y-130937000D02*
X113411000Y-129286000D01*
X127762000Y-146812000D02*
X123698000Y-146812000D01*
X124841000Y-125730000D02*
X126111000Y-127000000D01*
X123190000Y-141478000D02*
X123190000Y-144780000D01*
X123190000Y-146304000D02*
X123190000Y-144780000D01*
X114681000Y-140462000D02*
X122174000Y-140462000D01*
%TO.N,Net-(D4-A)*%
X105664000Y-110490000D02*
X104394000Y-109220000D01*
X104394000Y-102362000D02*
X95758000Y-102362000D01*
X95504000Y-102616000D02*
X95504000Y-104140000D01*
X120650000Y-109085000D02*
X120650000Y-100965000D01*
X95758000Y-102362000D02*
X95504000Y-102616000D01*
X104394000Y-102362000D02*
X111379000Y-102362000D01*
X120650000Y-100965000D02*
X120015000Y-100330000D01*
X120015000Y-100330000D02*
X115570000Y-100330000D01*
X111379000Y-102362000D02*
X113411000Y-100330000D01*
X104394000Y-109220000D02*
X104394000Y-102362000D01*
X113411000Y-100330000D02*
X115570000Y-100330000D01*
D20*
%TO.N,GND*%
X146812000Y-118110000D02*
X144272000Y-118110000D01*
X149110000Y-158230000D02*
X149110000Y-111899000D01*
X110744000Y-106680000D02*
X113149000Y-109085000D01*
X139192000Y-118110000D02*
X134112000Y-118110000D01*
X144272000Y-118110000D02*
X144272000Y-114300000D01*
X141732000Y-118110000D02*
X141732000Y-121920000D01*
X115316000Y-121920000D02*
X113284000Y-121920000D01*
X146812000Y-137160000D02*
X149110000Y-137160000D01*
X115570000Y-121666000D02*
X115316000Y-121920000D01*
X134112000Y-118110000D02*
X134112000Y-114300000D01*
X113284000Y-127381000D02*
X113284000Y-121920000D01*
X147320000Y-172720000D02*
X147320000Y-160020000D01*
X148336000Y-111125000D02*
X146010000Y-111125000D01*
X144272000Y-118110000D02*
X141732000Y-118110000D01*
X112141000Y-135763000D02*
X112141000Y-128524000D01*
X115570000Y-119507000D02*
X115570000Y-109085000D01*
X115570000Y-119507000D02*
X115570000Y-121666000D01*
X146812000Y-121920000D02*
X149110000Y-121920000D01*
X110744000Y-137160000D02*
X112141000Y-135763000D01*
X149110000Y-111899000D02*
X148336000Y-111125000D01*
X113149000Y-109085000D02*
X115570000Y-109085000D01*
X112141000Y-128524000D02*
X113284000Y-127381000D01*
X139192000Y-118110000D02*
X139192000Y-114300000D01*
X115617000Y-119460000D02*
X121920000Y-119460000D01*
X141732000Y-118110000D02*
X139192000Y-118110000D01*
X146812000Y-121920000D02*
X146812000Y-118110000D01*
X110744000Y-106680000D02*
X110744000Y-104140000D01*
X147320000Y-160020000D02*
X149110000Y-158230000D01*
X115617000Y-119460000D02*
X115570000Y-119507000D01*
D19*
%TO.N,/D0*%
X144780000Y-172720000D02*
X144780000Y-156845000D01*
X143002000Y-130810000D02*
X141732000Y-129540000D01*
X144780000Y-156845000D02*
X144780000Y-141605000D01*
X143002000Y-139827000D02*
X143002000Y-130810000D01*
X144780000Y-141605000D02*
X143002000Y-139827000D01*
%TO.N,/D1*%
X143002000Y-157988000D02*
X143002000Y-141732000D01*
X142240000Y-163830000D02*
X143002000Y-163068000D01*
X141732000Y-140462000D02*
X141732000Y-137160000D01*
X143002000Y-163068000D02*
X143002000Y-157988000D01*
X143002000Y-141732000D02*
X141732000Y-140462000D01*
X142240000Y-172720000D02*
X142240000Y-163830000D01*
%TO.N,/D2*%
X138049000Y-139446000D02*
X137922000Y-139319000D01*
X136906000Y-134366000D02*
X134366000Y-134366000D01*
X138430000Y-162560000D02*
X138430000Y-160020000D01*
X137922000Y-139319000D02*
X137922000Y-135382000D01*
X142494000Y-155956000D02*
X142494000Y-141986000D01*
X139700000Y-172720000D02*
X139700000Y-163830000D01*
X139954000Y-139446000D02*
X138049000Y-139446000D01*
X134366000Y-134366000D02*
X134112000Y-134112000D01*
X139700000Y-163830000D02*
X138430000Y-162560000D01*
X134112000Y-134112000D02*
X134112000Y-129540000D01*
X137922000Y-135382000D02*
X136906000Y-134366000D01*
X138430000Y-160020000D02*
X142494000Y-155956000D01*
X142494000Y-141986000D02*
X139954000Y-139446000D01*
%TO.N,/D3*%
X137160000Y-158750000D02*
X140970000Y-154940000D01*
X136652000Y-140335000D02*
X136652000Y-137160000D01*
X140970000Y-141732000D02*
X139700000Y-140462000D01*
X140970000Y-144780000D02*
X140970000Y-141732000D01*
X136779000Y-140462000D02*
X136652000Y-140335000D01*
X139700000Y-140462000D02*
X136779000Y-140462000D01*
X140970000Y-154940000D02*
X140970000Y-144780000D01*
X137160000Y-172720000D02*
X137160000Y-158750000D01*
%TO.N,/D4*%
X134620000Y-172720000D02*
X134620000Y-158750000D01*
X134620000Y-158750000D02*
X138430000Y-154940000D01*
X138430000Y-154940000D02*
X138430000Y-144780000D01*
%TO.N,/D5*%
X135890000Y-154940000D02*
X135890000Y-144780000D01*
X132080000Y-172720000D02*
X132080000Y-158750000D01*
X132080000Y-158750000D02*
X135890000Y-154940000D01*
%TO.N,/D6*%
X129540000Y-172720000D02*
X129540000Y-158750000D01*
X129540000Y-158750000D02*
X133350000Y-154940000D01*
X133350000Y-154940000D02*
X133350000Y-144780000D01*
%TO.N,/D7*%
X130810000Y-154940000D02*
X130810000Y-144780000D01*
X127000000Y-172720000D02*
X127000000Y-158750000D01*
X127000000Y-158750000D02*
X130810000Y-154940000D01*
%TO.N,/A10*%
X116840000Y-154178000D02*
X116840000Y-163830000D01*
X119380000Y-166370000D02*
X119380000Y-167005000D01*
X116840000Y-163830000D02*
X119380000Y-166370000D01*
%TO.N,/A11*%
X111760000Y-157480000D02*
X111760000Y-149352000D01*
%TO.N,/A9*%
X121920000Y-167005000D02*
X121920000Y-151765000D01*
X121920000Y-151765000D02*
X118110000Y-147955000D01*
%TO.N,/A8*%
X117475000Y-146685000D02*
X115570000Y-144780000D01*
X123190000Y-148590000D02*
X121920000Y-148590000D01*
X120015000Y-146685000D02*
X117475000Y-146685000D01*
X124460000Y-149860000D02*
X123190000Y-148590000D01*
X121920000Y-148590000D02*
X120015000Y-146685000D01*
X124460000Y-167005000D02*
X124460000Y-149860000D01*
%TO.N,Net-(U5-Q3)*%
X132842000Y-142240000D02*
X132842000Y-134366000D01*
%TO.N,Net-(JP1-C)*%
X107950000Y-160020000D02*
X107950000Y-156845000D01*
%TO.N,Net-(U1A-Q)*%
X129540000Y-116205000D02*
X129710000Y-116375000D01*
X129710000Y-116375000D02*
X129710000Y-123020000D01*
X130302000Y-123612000D02*
X130302000Y-135890000D01*
X129710000Y-123020000D02*
X130302000Y-123612000D01*
X130302000Y-135890000D02*
X129032000Y-137160000D01*
X106045000Y-104140000D02*
X105410000Y-104775000D01*
%TO.N,Net-(U5-Q1)*%
X139192000Y-131435635D02*
X137922000Y-130165635D01*
X137541000Y-125730000D02*
X136525000Y-125730000D01*
X136525000Y-125730000D02*
X135890000Y-125095000D01*
X135890000Y-125095000D02*
X135890000Y-122682000D01*
X137922000Y-126111000D02*
X137541000Y-125730000D01*
X139192000Y-137160000D02*
X139192000Y-131435635D01*
X135890000Y-122682000D02*
X136652000Y-121920000D01*
X137922000Y-130165635D02*
X137922000Y-126111000D01*
%TO.N,Net-(U5-Q2)*%
X144272000Y-133223000D02*
X145542000Y-131953000D01*
X145542000Y-120777000D02*
X144780000Y-120015000D01*
X144272000Y-137160000D02*
X144272000Y-133223000D01*
X105664000Y-135128000D02*
X105664000Y-137160000D01*
X145542000Y-131953000D02*
X145542000Y-120777000D01*
%TO.N,Net-(JP1-B)*%
X128524000Y-148590000D02*
X125730000Y-148590000D01*
X129540000Y-141478000D02*
X129540000Y-147574000D01*
X131572000Y-139446000D02*
X129540000Y-141478000D01*
X129540000Y-147574000D02*
X128524000Y-148590000D01*
X131572000Y-137160000D02*
X131572000Y-139446000D01*
%TO.N,Net-(U1A-C)*%
X105664000Y-114300000D02*
X105664000Y-113284000D01*
X105664000Y-113284000D02*
X100584000Y-108204000D01*
X100584000Y-108204000D02*
X100584000Y-104140000D01*
%TO.N,/IO1*%
X109220000Y-172720000D02*
X109220000Y-168148000D01*
X109220000Y-168148000D02*
X104394000Y-163322000D01*
X104140000Y-126365000D02*
X102957000Y-126365000D01*
X104394000Y-163322000D02*
X104394000Y-126619000D01*
X104394000Y-126619000D02*
X104140000Y-126365000D01*
%TO.N,/PHI2*%
X99314000Y-125023365D02*
X98044000Y-123753365D01*
X103632000Y-166878000D02*
X103632000Y-164846000D01*
X98044000Y-123753365D02*
X98044000Y-121920000D01*
X103632000Y-164846000D02*
X99314000Y-160528000D01*
X99314000Y-160528000D02*
X99314000Y-125023365D01*
%TO.N,/EXROM*%
X106426000Y-161544000D02*
X107188000Y-162306000D01*
X114300000Y-167894000D02*
X114300000Y-172720000D01*
X106426000Y-156210000D02*
X106426000Y-161544000D01*
X110617000Y-156210000D02*
X106426000Y-156210000D01*
X107188000Y-162306000D02*
X108712000Y-162306000D01*
X108712000Y-162306000D02*
X114300000Y-167894000D01*
%TO.N,Net-(D3-A)*%
X103124000Y-135636000D02*
X101854000Y-134366000D01*
X104394000Y-118364000D02*
X106934000Y-115824000D01*
X103124000Y-137160000D02*
X103124000Y-135636000D01*
X101854000Y-125476000D02*
X104394000Y-122936000D01*
X106934000Y-115824000D02*
X106934000Y-113284000D01*
X101854000Y-134366000D02*
X101854000Y-125476000D01*
X106934000Y-113284000D02*
X108204000Y-112014000D01*
X104394000Y-122936000D02*
X104394000Y-118364000D01*
X108204000Y-112014000D02*
X108204000Y-104140000D01*
%TO.N,/GAME*%
X105664000Y-151384000D02*
X106426000Y-150622000D01*
X108204000Y-140716000D02*
X108204000Y-137160000D01*
X106426000Y-150622000D02*
X106426000Y-142494000D01*
X105664000Y-161798000D02*
X105664000Y-151384000D01*
X111760000Y-172720000D02*
X111760000Y-167894000D01*
X111760000Y-167894000D02*
X105664000Y-161798000D01*
X106426000Y-142494000D02*
X108204000Y-140716000D01*
%TO.N,/ROMH*%
X96520000Y-143764000D02*
X94234000Y-141478000D01*
X96520000Y-166370000D02*
X96520000Y-143764000D01*
X94234000Y-141478000D02*
X94234000Y-135128000D01*
%TO.N,Net-(D1-K)*%
X105410000Y-149860000D02*
X105410000Y-141986000D01*
X109474000Y-125730000D02*
X109474000Y-112776000D01*
X106934000Y-128270000D02*
X109474000Y-125730000D01*
X106934000Y-140462000D02*
X106934000Y-128270000D01*
X109474000Y-112776000D02*
X110490000Y-111760000D01*
X105410000Y-141986000D02*
X106934000Y-140462000D01*
%TO.N,Net-(D5-K)*%
X108204000Y-94234000D02*
X108204000Y-96520000D01*
X127254000Y-93853000D02*
X108585000Y-93853000D01*
X127635000Y-94234000D02*
X127635000Y-103759000D01*
X108585000Y-93853000D02*
X108204000Y-94234000D01*
X127635000Y-94234000D02*
X127254000Y-93853000D01*
X127635000Y-103759000D02*
X127254000Y-104140000D01*
X127254000Y-104140000D02*
X125730000Y-104140000D01*
%TO.N,/ROML*%
X109474000Y-139954000D02*
X109474000Y-135170683D01*
X114300000Y-163322000D02*
X114300000Y-150114000D01*
X111760000Y-147574000D02*
X111760000Y-142240000D01*
X119380000Y-172720000D02*
X119380000Y-168402000D01*
X109474000Y-135170683D02*
X108204000Y-133900683D01*
X108204000Y-133900683D02*
X108204000Y-129540000D01*
X114300000Y-150114000D02*
X111760000Y-147574000D01*
X119380000Y-168402000D02*
X114300000Y-163322000D01*
X111760000Y-142240000D02*
X109474000Y-139954000D01*
%TO.N,/BA*%
X120650000Y-167894000D02*
X120396000Y-167640000D01*
X112776000Y-139827000D02*
X112776000Y-128905000D01*
X121412000Y-167894000D02*
X120650000Y-167894000D01*
X120396000Y-167640000D02*
X120396000Y-163576000D01*
X117221000Y-124460000D02*
X118110000Y-124460000D01*
X121920000Y-168402000D02*
X121412000Y-167894000D01*
X121920000Y-172720000D02*
X121920000Y-168402000D01*
X119380000Y-162560000D02*
X119380000Y-153670000D01*
X112776000Y-128905000D02*
X117221000Y-124460000D01*
X119380000Y-153670000D02*
X114300000Y-148590000D01*
X114300000Y-141351000D02*
X112776000Y-139827000D01*
X114300000Y-148590000D02*
X114300000Y-141351000D01*
X120396000Y-163576000D02*
X119380000Y-162560000D01*
%TO.N,/IO2*%
X116840000Y-172720000D02*
X116840000Y-168148000D01*
X109728000Y-162052000D02*
X109220000Y-161544000D01*
X116840000Y-167925635D02*
X110966365Y-162052000D01*
X109220000Y-161544000D02*
X109220000Y-157480000D01*
X110966365Y-162052000D02*
X109728000Y-162052000D01*
X116840000Y-168148000D02*
X116840000Y-167925635D01*
%TO.N,/RESET*%
X94488000Y-100203000D02*
X111760000Y-100203000D01*
X125730000Y-98552000D02*
X125730000Y-100330000D01*
X113411000Y-98552000D02*
X125730000Y-98552000D01*
X99060000Y-166370000D02*
X97790000Y-165100000D01*
X125730000Y-96520000D02*
X125730000Y-98552000D01*
X144526000Y-107442000D02*
X144780000Y-107188000D01*
X94107000Y-100584000D02*
X94488000Y-100203000D01*
X144780000Y-107188000D02*
X144780000Y-103916863D01*
X143637000Y-108585000D02*
X143637000Y-109855000D01*
X94107000Y-108331000D02*
X94107000Y-100584000D01*
X96520000Y-108712000D02*
X94488000Y-108712000D01*
X96774000Y-142240000D02*
X96774000Y-108966000D01*
X97790000Y-165100000D02*
X97790000Y-143256000D01*
X97790000Y-143256000D02*
X96774000Y-142240000D01*
X129413000Y-107442000D02*
X143637000Y-107442000D01*
X94488000Y-108712000D02*
X94107000Y-108331000D01*
X143637000Y-107442000D02*
X143637000Y-108585000D01*
X143637000Y-111379000D02*
X143637000Y-109855000D01*
X143637000Y-107442000D02*
X144526000Y-107442000D01*
X111760000Y-100203000D02*
X113411000Y-98552000D01*
X96774000Y-108966000D02*
X96520000Y-108712000D01*
%TO.N,/IRQ*%
X101600000Y-164592000D02*
X101600000Y-172720000D01*
X100584000Y-163576000D02*
X101600000Y-164592000D01*
%TD*%
M02*
