%TF.GenerationSoftware,KiCad,Pcbnew,7.0.9+dfsg-1*%
%TF.CreationDate,2024-01-12T21:14:41+01:00*%
%TF.ProjectId,C64NIKI2,4336344e-494b-4493-922e-6b696361645f,rev?*%
%TF.SameCoordinates,Original*%
%TF.FileFunction,Drillmap*%
%TF.FilePolarity,Positive*%
%FSLAX45Y45*%
G04 Gerber Fmt 4.5, Leading zero omitted, Abs format (unit mm)*
G04 Created by KiCad (PCBNEW 7.0.9+dfsg-1) date 2024-01-12 21:14:41*
%MOMM*%
%LPD*%
G01*
G04 APERTURE LIST*
%ADD10C,0.200000*%
%ADD11C,0.100000*%
%ADD12C,0.650000*%
G04 APERTURE END LIST*
D10*
D11*
X9408400Y-13497800D02*
X9438400Y-13527800D01*
X9438400Y-13497800D02*
X9408400Y-13527800D01*
X9510000Y-14653500D02*
X9540000Y-14683500D01*
X9540000Y-14653500D02*
X9510000Y-14683500D01*
X9637000Y-16622000D02*
X9667000Y-16652000D01*
X9667000Y-16622000D02*
X9637000Y-16652000D01*
X9891000Y-16622000D02*
X9921000Y-16652000D01*
X9921000Y-16622000D02*
X9891000Y-16652000D01*
X10043400Y-16342600D02*
X10073400Y-16372600D01*
X10073400Y-16342600D02*
X10043400Y-16372600D01*
X10348200Y-16672800D02*
X10378200Y-16702800D01*
X10378200Y-16672800D02*
X10348200Y-16702800D01*
X10526000Y-14971000D02*
X10556000Y-15001000D01*
X10556000Y-14971000D02*
X10526000Y-15001000D01*
X10551400Y-13497800D02*
X10581400Y-13527800D01*
X10581400Y-13497800D02*
X10551400Y-13527800D01*
X10780000Y-15669500D02*
X10810000Y-15699500D01*
X10810000Y-15669500D02*
X10780000Y-15699500D01*
X10907000Y-15733000D02*
X10937000Y-15763000D01*
X10937000Y-15733000D02*
X10907000Y-15763000D01*
X11034000Y-11161000D02*
X11064000Y-11191000D01*
X11064000Y-11161000D02*
X11034000Y-11191000D01*
X11046700Y-15606000D02*
X11076700Y-15636000D01*
X11076700Y-15606000D02*
X11046700Y-15636000D01*
X11161000Y-14920200D02*
X11191000Y-14950200D01*
X11191000Y-14920200D02*
X11161000Y-14950200D01*
X11161000Y-15733000D02*
X11191000Y-15763000D01*
X11191000Y-15733000D02*
X11161000Y-15763000D01*
X11326100Y-13078700D02*
X11356100Y-13108700D01*
X11356100Y-13078700D02*
X11326100Y-13108700D01*
X11630900Y-11931000D02*
X11660900Y-11961000D01*
X11660900Y-11931000D02*
X11630900Y-11961000D01*
X11669000Y-15402800D02*
X11699000Y-15432800D01*
X11699000Y-15402800D02*
X11669000Y-15432800D01*
X11796000Y-14780500D02*
X11826000Y-14810500D01*
X11826000Y-14780500D02*
X11796000Y-14810500D01*
X11923000Y-16685500D02*
X11953000Y-16715500D01*
X11953000Y-16685500D02*
X11923000Y-16715500D01*
X12177000Y-16685500D02*
X12207000Y-16715500D01*
X12207000Y-16685500D02*
X12177000Y-16715500D01*
X12431000Y-16685500D02*
X12461000Y-16715500D01*
X12461000Y-16685500D02*
X12431000Y-16715500D01*
X12558000Y-14844000D02*
X12588000Y-14874000D01*
X12588000Y-14844000D02*
X12558000Y-14874000D01*
X12685000Y-14031200D02*
X12715000Y-14061200D01*
X12715000Y-14031200D02*
X12685000Y-14061200D01*
X12939000Y-10780000D02*
X12969000Y-10810000D01*
X12969000Y-10780000D02*
X12939000Y-10810000D01*
X12939000Y-11605500D02*
X12969000Y-11635500D01*
X12969000Y-11605500D02*
X12939000Y-11635500D01*
X13269200Y-13421600D02*
X13299200Y-13451600D01*
X13299200Y-13421600D02*
X13269200Y-13451600D01*
X13269200Y-14209000D02*
X13299200Y-14239000D01*
X13299200Y-14209000D02*
X13269200Y-14239000D01*
X14285200Y-15783800D02*
X14315200Y-15813800D01*
X14315200Y-15783800D02*
X14285200Y-15813800D01*
X14463000Y-11986500D02*
X14493000Y-12016500D01*
X14493000Y-11986500D02*
X14463000Y-12016500D01*
X14463000Y-15669500D02*
X14493000Y-15699500D01*
X14493000Y-15669500D02*
X14463000Y-15699500D01*
X14717000Y-15987000D02*
X14747000Y-16017000D01*
X14747000Y-15987000D02*
X14717000Y-16017000D01*
X14780500Y-10907000D02*
X14810500Y-10937000D01*
X14810500Y-10907000D02*
X14780500Y-10937000D01*
X9565000Y-14986000D02*
G75*
G03*
X9565000Y-14986000I-40000J0D01*
G01*
X9565000Y-16002000D02*
G75*
G03*
X9565000Y-16002000I-40000J0D01*
G01*
X9590400Y-9906000D02*
G75*
G03*
X9590400Y-9906000I-40000J0D01*
G01*
X9590400Y-10668000D02*
G75*
G03*
X9590400Y-10668000I-40000J0D01*
G01*
X9590400Y-11049000D02*
G75*
G03*
X9590400Y-11049000I-40000J0D01*
G01*
X9590400Y-11430000D02*
G75*
G03*
X9590400Y-11430000I-40000J0D01*
G01*
X9590400Y-12192000D02*
G75*
G03*
X9590400Y-12192000I-40000J0D01*
G01*
X9590400Y-12954000D02*
G75*
G03*
X9590400Y-12954000I-40000J0D01*
G01*
X9590400Y-13716000D02*
G75*
G03*
X9590400Y-13716000I-40000J0D01*
G01*
X9835700Y-12636500D02*
G75*
G03*
X9835700Y-12636500I-40000J0D01*
G01*
X9844400Y-9906000D02*
G75*
G03*
X9844400Y-9906000I-40000J0D01*
G01*
X9844400Y-10668000D02*
G75*
G03*
X9844400Y-10668000I-40000J0D01*
G01*
X9844400Y-11430000D02*
G75*
G03*
X9844400Y-11430000I-40000J0D01*
G01*
X9844400Y-12192000D02*
G75*
G03*
X9844400Y-12192000I-40000J0D01*
G01*
X9844400Y-12954000D02*
G75*
G03*
X9844400Y-12954000I-40000J0D01*
G01*
X9844400Y-13716000D02*
G75*
G03*
X9844400Y-13716000I-40000J0D01*
G01*
X10098400Y-9906000D02*
G75*
G03*
X10098400Y-9906000I-40000J0D01*
G01*
X10098400Y-10668000D02*
G75*
G03*
X10098400Y-10668000I-40000J0D01*
G01*
X10098400Y-11430000D02*
G75*
G03*
X10098400Y-11430000I-40000J0D01*
G01*
X10098400Y-12192000D02*
G75*
G03*
X10098400Y-12192000I-40000J0D01*
G01*
X10098400Y-12954000D02*
G75*
G03*
X10098400Y-12954000I-40000J0D01*
G01*
X10098400Y-13716000D02*
G75*
G03*
X10098400Y-13716000I-40000J0D01*
G01*
X10276200Y-14986000D02*
G75*
G03*
X10276200Y-14986000I-40000J0D01*
G01*
X10276200Y-16002000D02*
G75*
G03*
X10276200Y-16002000I-40000J0D01*
G01*
X10335700Y-12636500D02*
G75*
G03*
X10335700Y-12636500I-40000J0D01*
G01*
X10352400Y-9906000D02*
G75*
G03*
X10352400Y-9906000I-40000J0D01*
G01*
X10352400Y-10668000D02*
G75*
G03*
X10352400Y-10668000I-40000J0D01*
G01*
X10352400Y-11430000D02*
G75*
G03*
X10352400Y-11430000I-40000J0D01*
G01*
X10352400Y-12192000D02*
G75*
G03*
X10352400Y-12192000I-40000J0D01*
G01*
X10352400Y-12954000D02*
G75*
G03*
X10352400Y-12954000I-40000J0D01*
G01*
X10352400Y-13716000D02*
G75*
G03*
X10352400Y-13716000I-40000J0D01*
G01*
X10606400Y-9906000D02*
G75*
G03*
X10606400Y-9906000I-40000J0D01*
G01*
X10606400Y-10668000D02*
G75*
G03*
X10606400Y-10668000I-40000J0D01*
G01*
X10606400Y-11049000D02*
G75*
G03*
X10606400Y-11049000I-40000J0D01*
G01*
X10606400Y-11430000D02*
G75*
G03*
X10606400Y-11430000I-40000J0D01*
G01*
X10606400Y-12192000D02*
G75*
G03*
X10606400Y-12192000I-40000J0D01*
G01*
X10606400Y-12954000D02*
G75*
G03*
X10606400Y-12954000I-40000J0D01*
G01*
X10606400Y-13716000D02*
G75*
G03*
X10606400Y-13716000I-40000J0D01*
G01*
X10835000Y-14478000D02*
G75*
G03*
X10835000Y-14478000I-40000J0D01*
G01*
X10835000Y-16002000D02*
G75*
G03*
X10835000Y-16002000I-40000J0D01*
G01*
X10860400Y-9906000D02*
G75*
G03*
X10860400Y-9906000I-40000J0D01*
G01*
X10860400Y-10668000D02*
G75*
G03*
X10860400Y-10668000I-40000J0D01*
G01*
X10860400Y-11430000D02*
G75*
G03*
X10860400Y-11430000I-40000J0D01*
G01*
X10860400Y-12192000D02*
G75*
G03*
X10860400Y-12192000I-40000J0D01*
G01*
X10860400Y-12954000D02*
G75*
G03*
X10860400Y-12954000I-40000J0D01*
G01*
X10860400Y-13716000D02*
G75*
G03*
X10860400Y-13716000I-40000J0D01*
G01*
X11089000Y-14478000D02*
G75*
G03*
X11089000Y-14478000I-40000J0D01*
G01*
X11089000Y-16002000D02*
G75*
G03*
X11089000Y-16002000I-40000J0D01*
G01*
X11114400Y-9906000D02*
G75*
G03*
X11114400Y-9906000I-40000J0D01*
G01*
X11114400Y-10668000D02*
G75*
G03*
X11114400Y-10668000I-40000J0D01*
G01*
X11114400Y-11430000D02*
G75*
G03*
X11114400Y-11430000I-40000J0D01*
G01*
X11114400Y-12192000D02*
G75*
G03*
X11114400Y-12192000I-40000J0D01*
G01*
X11114400Y-12954000D02*
G75*
G03*
X11114400Y-12954000I-40000J0D01*
G01*
X11114400Y-13716000D02*
G75*
G03*
X11114400Y-13716000I-40000J0D01*
G01*
X11343000Y-14478000D02*
G75*
G03*
X11343000Y-14478000I-40000J0D01*
G01*
X11343000Y-16002000D02*
G75*
G03*
X11343000Y-16002000I-40000J0D01*
G01*
X11368400Y-11430000D02*
G75*
G03*
X11368400Y-11430000I-40000J0D01*
G01*
X11368400Y-12192000D02*
G75*
G03*
X11368400Y-12192000I-40000J0D01*
G01*
X11597000Y-9906000D02*
G75*
G03*
X11597000Y-9906000I-40000J0D01*
G01*
X11597000Y-10287000D02*
G75*
G03*
X11597000Y-10287000I-40000J0D01*
G01*
X11597000Y-10668000D02*
G75*
G03*
X11597000Y-10668000I-40000J0D01*
G01*
X11597000Y-10908500D02*
G75*
G03*
X11597000Y-10908500I-40000J0D01*
G01*
X11597000Y-14478000D02*
G75*
G03*
X11597000Y-14478000I-40000J0D01*
G01*
X11597000Y-16002000D02*
G75*
G03*
X11597000Y-16002000I-40000J0D01*
G01*
X11851000Y-11162500D02*
G75*
G03*
X11851000Y-11162500I-40000J0D01*
G01*
X11851000Y-11430000D02*
G75*
G03*
X11851000Y-11430000I-40000J0D01*
G01*
X11851000Y-12446000D02*
G75*
G03*
X11851000Y-12446000I-40000J0D01*
G01*
X11851000Y-14478000D02*
G75*
G03*
X11851000Y-14478000I-40000J0D01*
G01*
X11851000Y-16002000D02*
G75*
G03*
X11851000Y-16002000I-40000J0D01*
G01*
X12105000Y-10908500D02*
G75*
G03*
X12105000Y-10908500I-40000J0D01*
G01*
X12105000Y-14478000D02*
G75*
G03*
X12105000Y-14478000I-40000J0D01*
G01*
X12105000Y-16002000D02*
G75*
G03*
X12105000Y-16002000I-40000J0D01*
G01*
X12232000Y-11946000D02*
G75*
G03*
X12232000Y-11946000I-40000J0D01*
G01*
X12232000Y-12446000D02*
G75*
G03*
X12232000Y-12446000I-40000J0D01*
G01*
X12359000Y-14478000D02*
G75*
G03*
X12359000Y-14478000I-40000J0D01*
G01*
X12359000Y-16002000D02*
G75*
G03*
X12359000Y-16002000I-40000J0D01*
G01*
X12613000Y-9906000D02*
G75*
G03*
X12613000Y-9906000I-40000J0D01*
G01*
X12613000Y-10287000D02*
G75*
G03*
X12613000Y-10287000I-40000J0D01*
G01*
X12613000Y-10668000D02*
G75*
G03*
X12613000Y-10668000I-40000J0D01*
G01*
X12613000Y-11430000D02*
G75*
G03*
X12613000Y-11430000I-40000J0D01*
G01*
X12613000Y-12446000D02*
G75*
G03*
X12613000Y-12446000I-40000J0D01*
G01*
X12613000Y-14478000D02*
G75*
G03*
X12613000Y-14478000I-40000J0D01*
G01*
X12613000Y-16002000D02*
G75*
G03*
X12613000Y-16002000I-40000J0D01*
G01*
X12651100Y-12700000D02*
G75*
G03*
X12651100Y-12700000I-40000J0D01*
G01*
X12867000Y-11049000D02*
G75*
G03*
X12867000Y-11049000I-40000J0D01*
G01*
X12867000Y-14478000D02*
G75*
G03*
X12867000Y-14478000I-40000J0D01*
G01*
X12867000Y-16002000D02*
G75*
G03*
X12867000Y-16002000I-40000J0D01*
G01*
X12943200Y-12954000D02*
G75*
G03*
X12943200Y-12954000I-40000J0D01*
G01*
X12943200Y-13716000D02*
G75*
G03*
X12943200Y-13716000I-40000J0D01*
G01*
X13121000Y-14478000D02*
G75*
G03*
X13121000Y-14478000I-40000J0D01*
G01*
X13121000Y-16002000D02*
G75*
G03*
X13121000Y-16002000I-40000J0D01*
G01*
X13197200Y-11430000D02*
G75*
G03*
X13197200Y-11430000I-40000J0D01*
G01*
X13197200Y-12192000D02*
G75*
G03*
X13197200Y-12192000I-40000J0D01*
G01*
X13197200Y-12954000D02*
G75*
G03*
X13197200Y-12954000I-40000J0D01*
G01*
X13197200Y-13716000D02*
G75*
G03*
X13197200Y-13716000I-40000J0D01*
G01*
X13375000Y-14478000D02*
G75*
G03*
X13375000Y-14478000I-40000J0D01*
G01*
X13375000Y-16002000D02*
G75*
G03*
X13375000Y-16002000I-40000J0D01*
G01*
X13451200Y-11430000D02*
G75*
G03*
X13451200Y-11430000I-40000J0D01*
G01*
X13451200Y-12192000D02*
G75*
G03*
X13451200Y-12192000I-40000J0D01*
G01*
X13451200Y-12954000D02*
G75*
G03*
X13451200Y-12954000I-40000J0D01*
G01*
X13451200Y-13716000D02*
G75*
G03*
X13451200Y-13716000I-40000J0D01*
G01*
X13629000Y-14478000D02*
G75*
G03*
X13629000Y-14478000I-40000J0D01*
G01*
X13629000Y-16002000D02*
G75*
G03*
X13629000Y-16002000I-40000J0D01*
G01*
X13667100Y-12700000D02*
G75*
G03*
X13667100Y-12700000I-40000J0D01*
G01*
X13705200Y-11430000D02*
G75*
G03*
X13705200Y-11430000I-40000J0D01*
G01*
X13705200Y-12192000D02*
G75*
G03*
X13705200Y-12192000I-40000J0D01*
G01*
X13705200Y-12954000D02*
G75*
G03*
X13705200Y-12954000I-40000J0D01*
G01*
X13705200Y-13716000D02*
G75*
G03*
X13705200Y-13716000I-40000J0D01*
G01*
X13756000Y-12446000D02*
G75*
G03*
X13756000Y-12446000I-40000J0D01*
G01*
X13883000Y-11049000D02*
G75*
G03*
X13883000Y-11049000I-40000J0D01*
G01*
X13883000Y-14478000D02*
G75*
G03*
X13883000Y-14478000I-40000J0D01*
G01*
X13883000Y-16002000D02*
G75*
G03*
X13883000Y-16002000I-40000J0D01*
G01*
X13959200Y-11430000D02*
G75*
G03*
X13959200Y-11430000I-40000J0D01*
G01*
X13959200Y-12192000D02*
G75*
G03*
X13959200Y-12192000I-40000J0D01*
G01*
X13959200Y-12954000D02*
G75*
G03*
X13959200Y-12954000I-40000J0D01*
G01*
X13959200Y-13716000D02*
G75*
G03*
X13959200Y-13716000I-40000J0D01*
G01*
X14137000Y-14478000D02*
G75*
G03*
X14137000Y-14478000I-40000J0D01*
G01*
X14137000Y-16002000D02*
G75*
G03*
X14137000Y-16002000I-40000J0D01*
G01*
X14141000Y-11049000D02*
G75*
G03*
X14141000Y-11049000I-40000J0D01*
G01*
X14213200Y-11430000D02*
G75*
G03*
X14213200Y-11430000I-40000J0D01*
G01*
X14213200Y-12192000D02*
G75*
G03*
X14213200Y-12192000I-40000J0D01*
G01*
X14213200Y-12954000D02*
G75*
G03*
X14213200Y-12954000I-40000J0D01*
G01*
X14213200Y-13716000D02*
G75*
G03*
X14213200Y-13716000I-40000J0D01*
G01*
X14467200Y-11430000D02*
G75*
G03*
X14467200Y-11430000I-40000J0D01*
G01*
X14467200Y-12192000D02*
G75*
G03*
X14467200Y-12192000I-40000J0D01*
G01*
X14467200Y-12954000D02*
G75*
G03*
X14467200Y-12954000I-40000J0D01*
G01*
X14467200Y-13716000D02*
G75*
G03*
X14467200Y-13716000I-40000J0D01*
G01*
X14641000Y-11049000D02*
G75*
G03*
X14641000Y-11049000I-40000J0D01*
G01*
X14721200Y-11430000D02*
G75*
G03*
X14721200Y-11430000I-40000J0D01*
G01*
X14721200Y-12192000D02*
G75*
G03*
X14721200Y-12192000I-40000J0D01*
G01*
X14721200Y-12954000D02*
G75*
G03*
X14721200Y-12954000I-40000J0D01*
G01*
X14721200Y-13716000D02*
G75*
G03*
X14721200Y-13716000I-40000J0D01*
G01*
X14772000Y-12446000D02*
G75*
G03*
X14772000Y-12446000I-40000J0D01*
G01*
X14772000Y-14990000D02*
G75*
G03*
X14772000Y-14990000I-40000J0D01*
G01*
X14772000Y-15490000D02*
G75*
G03*
X14772000Y-15490000I-40000J0D01*
G01*
D12*
X12065000Y-12946627D02*
X12065000Y-13596627D01*
X11740000Y-13271627D02*
X12390000Y-13271627D01*
D10*
X260777Y-311484D02*
X260777Y-111484D01*
X260777Y-111484D02*
X308396Y-111484D01*
X308396Y-111484D02*
X336967Y-121008D01*
X336967Y-121008D02*
X356015Y-140055D01*
X356015Y-140055D02*
X365539Y-159103D01*
X365539Y-159103D02*
X375062Y-197198D01*
X375062Y-197198D02*
X375062Y-225769D01*
X375062Y-225769D02*
X365539Y-263865D01*
X365539Y-263865D02*
X356015Y-282912D01*
X356015Y-282912D02*
X336967Y-301960D01*
X336967Y-301960D02*
X308396Y-311484D01*
X308396Y-311484D02*
X260777Y-311484D01*
X460777Y-311484D02*
X460777Y-178150D01*
X460777Y-216246D02*
X470301Y-197198D01*
X470301Y-197198D02*
X479824Y-187674D01*
X479824Y-187674D02*
X498872Y-178150D01*
X498872Y-178150D02*
X517920Y-178150D01*
X584586Y-311484D02*
X584586Y-178150D01*
X584586Y-111484D02*
X575063Y-121008D01*
X575063Y-121008D02*
X584586Y-130531D01*
X584586Y-130531D02*
X594110Y-121008D01*
X594110Y-121008D02*
X584586Y-111484D01*
X584586Y-111484D02*
X584586Y-130531D01*
X708396Y-311484D02*
X689348Y-301960D01*
X689348Y-301960D02*
X679824Y-282912D01*
X679824Y-282912D02*
X679824Y-111484D01*
X813158Y-311484D02*
X794110Y-301960D01*
X794110Y-301960D02*
X784586Y-282912D01*
X784586Y-282912D02*
X784586Y-111484D01*
X1041729Y-311484D02*
X1041729Y-111484D01*
X1041729Y-111484D02*
X1108396Y-254341D01*
X1108396Y-254341D02*
X1175063Y-111484D01*
X1175063Y-111484D02*
X1175063Y-311484D01*
X1356015Y-311484D02*
X1356015Y-206722D01*
X1356015Y-206722D02*
X1346491Y-187674D01*
X1346491Y-187674D02*
X1327444Y-178150D01*
X1327444Y-178150D02*
X1289348Y-178150D01*
X1289348Y-178150D02*
X1270301Y-187674D01*
X1356015Y-301960D02*
X1336967Y-311484D01*
X1336967Y-311484D02*
X1289348Y-311484D01*
X1289348Y-311484D02*
X1270301Y-301960D01*
X1270301Y-301960D02*
X1260777Y-282912D01*
X1260777Y-282912D02*
X1260777Y-263865D01*
X1260777Y-263865D02*
X1270301Y-244817D01*
X1270301Y-244817D02*
X1289348Y-235293D01*
X1289348Y-235293D02*
X1336967Y-235293D01*
X1336967Y-235293D02*
X1356015Y-225769D01*
X1451253Y-178150D02*
X1451253Y-378150D01*
X1451253Y-187674D02*
X1470301Y-178150D01*
X1470301Y-178150D02*
X1508396Y-178150D01*
X1508396Y-178150D02*
X1527443Y-187674D01*
X1527443Y-187674D02*
X1536967Y-197198D01*
X1536967Y-197198D02*
X1546491Y-216246D01*
X1546491Y-216246D02*
X1546491Y-273389D01*
X1546491Y-273389D02*
X1536967Y-292436D01*
X1536967Y-292436D02*
X1527443Y-301960D01*
X1527443Y-301960D02*
X1508396Y-311484D01*
X1508396Y-311484D02*
X1470301Y-311484D01*
X1470301Y-311484D02*
X1451253Y-301960D01*
X1632205Y-292436D02*
X1641729Y-301960D01*
X1641729Y-301960D02*
X1632205Y-311484D01*
X1632205Y-311484D02*
X1622682Y-301960D01*
X1622682Y-301960D02*
X1632205Y-292436D01*
X1632205Y-292436D02*
X1632205Y-311484D01*
X1632205Y-187674D02*
X1641729Y-197198D01*
X1641729Y-197198D02*
X1632205Y-206722D01*
X1632205Y-206722D02*
X1622682Y-197198D01*
X1622682Y-197198D02*
X1632205Y-187674D01*
X1632205Y-187674D02*
X1632205Y-206722D01*
D11*
X-30000Y-625000D02*
X0Y-655000D01*
X0Y-625000D02*
X-30000Y-655000D01*
D10*
X298872Y-531484D02*
X317920Y-531484D01*
X317920Y-531484D02*
X336967Y-541008D01*
X336967Y-541008D02*
X346491Y-550531D01*
X346491Y-550531D02*
X356015Y-569579D01*
X356015Y-569579D02*
X365539Y-607674D01*
X365539Y-607674D02*
X365539Y-655293D01*
X365539Y-655293D02*
X356015Y-693389D01*
X356015Y-693389D02*
X346491Y-712436D01*
X346491Y-712436D02*
X336967Y-721960D01*
X336967Y-721960D02*
X317920Y-731484D01*
X317920Y-731484D02*
X298872Y-731484D01*
X298872Y-731484D02*
X279824Y-721960D01*
X279824Y-721960D02*
X270301Y-712436D01*
X270301Y-712436D02*
X260777Y-693389D01*
X260777Y-693389D02*
X251253Y-655293D01*
X251253Y-655293D02*
X251253Y-607674D01*
X251253Y-607674D02*
X260777Y-569579D01*
X260777Y-569579D02*
X270301Y-550531D01*
X270301Y-550531D02*
X279824Y-541008D01*
X279824Y-541008D02*
X298872Y-531484D01*
X451253Y-712436D02*
X460777Y-721960D01*
X460777Y-721960D02*
X451253Y-731484D01*
X451253Y-731484D02*
X441729Y-721960D01*
X441729Y-721960D02*
X451253Y-712436D01*
X451253Y-712436D02*
X451253Y-731484D01*
X527444Y-531484D02*
X651253Y-531484D01*
X651253Y-531484D02*
X584586Y-607674D01*
X584586Y-607674D02*
X613158Y-607674D01*
X613158Y-607674D02*
X632205Y-617198D01*
X632205Y-617198D02*
X641729Y-626722D01*
X641729Y-626722D02*
X651253Y-645770D01*
X651253Y-645770D02*
X651253Y-693389D01*
X651253Y-693389D02*
X641729Y-712436D01*
X641729Y-712436D02*
X632205Y-721960D01*
X632205Y-721960D02*
X613158Y-731484D01*
X613158Y-731484D02*
X556015Y-731484D01*
X556015Y-731484D02*
X536967Y-721960D01*
X536967Y-721960D02*
X527444Y-712436D01*
X775062Y-531484D02*
X794110Y-531484D01*
X794110Y-531484D02*
X813158Y-541008D01*
X813158Y-541008D02*
X822682Y-550531D01*
X822682Y-550531D02*
X832205Y-569579D01*
X832205Y-569579D02*
X841729Y-607674D01*
X841729Y-607674D02*
X841729Y-655293D01*
X841729Y-655293D02*
X832205Y-693389D01*
X832205Y-693389D02*
X822682Y-712436D01*
X822682Y-712436D02*
X813158Y-721960D01*
X813158Y-721960D02*
X794110Y-731484D01*
X794110Y-731484D02*
X775062Y-731484D01*
X775062Y-731484D02*
X756015Y-721960D01*
X756015Y-721960D02*
X746491Y-712436D01*
X746491Y-712436D02*
X736967Y-693389D01*
X736967Y-693389D02*
X727443Y-655293D01*
X727443Y-655293D02*
X727443Y-607674D01*
X727443Y-607674D02*
X736967Y-569579D01*
X736967Y-569579D02*
X746491Y-550531D01*
X746491Y-550531D02*
X756015Y-541008D01*
X756015Y-541008D02*
X775062Y-531484D01*
X965539Y-531484D02*
X984586Y-531484D01*
X984586Y-531484D02*
X1003634Y-541008D01*
X1003634Y-541008D02*
X1013158Y-550531D01*
X1013158Y-550531D02*
X1022682Y-569579D01*
X1022682Y-569579D02*
X1032205Y-607674D01*
X1032205Y-607674D02*
X1032205Y-655293D01*
X1032205Y-655293D02*
X1022682Y-693389D01*
X1022682Y-693389D02*
X1013158Y-712436D01*
X1013158Y-712436D02*
X1003634Y-721960D01*
X1003634Y-721960D02*
X984586Y-731484D01*
X984586Y-731484D02*
X965539Y-731484D01*
X965539Y-731484D02*
X946491Y-721960D01*
X946491Y-721960D02*
X936967Y-712436D01*
X936967Y-712436D02*
X927443Y-693389D01*
X927443Y-693389D02*
X917920Y-655293D01*
X917920Y-655293D02*
X917920Y-607674D01*
X917920Y-607674D02*
X927443Y-569579D01*
X927443Y-569579D02*
X936967Y-550531D01*
X936967Y-550531D02*
X946491Y-541008D01*
X946491Y-541008D02*
X965539Y-531484D01*
X1117920Y-731484D02*
X1117920Y-598150D01*
X1117920Y-617198D02*
X1127444Y-607674D01*
X1127444Y-607674D02*
X1146491Y-598150D01*
X1146491Y-598150D02*
X1175063Y-598150D01*
X1175063Y-598150D02*
X1194110Y-607674D01*
X1194110Y-607674D02*
X1203634Y-626722D01*
X1203634Y-626722D02*
X1203634Y-731484D01*
X1203634Y-626722D02*
X1213158Y-607674D01*
X1213158Y-607674D02*
X1232205Y-598150D01*
X1232205Y-598150D02*
X1260777Y-598150D01*
X1260777Y-598150D02*
X1279825Y-607674D01*
X1279825Y-607674D02*
X1289348Y-626722D01*
X1289348Y-626722D02*
X1289348Y-731484D01*
X1384586Y-731484D02*
X1384586Y-598150D01*
X1384586Y-617198D02*
X1394110Y-607674D01*
X1394110Y-607674D02*
X1413158Y-598150D01*
X1413158Y-598150D02*
X1441729Y-598150D01*
X1441729Y-598150D02*
X1460777Y-607674D01*
X1460777Y-607674D02*
X1470301Y-626722D01*
X1470301Y-626722D02*
X1470301Y-731484D01*
X1470301Y-626722D02*
X1479824Y-607674D01*
X1479824Y-607674D02*
X1498872Y-598150D01*
X1498872Y-598150D02*
X1527443Y-598150D01*
X1527443Y-598150D02*
X1546491Y-607674D01*
X1546491Y-607674D02*
X1556015Y-626722D01*
X1556015Y-626722D02*
X1556015Y-731484D01*
X1946491Y-521960D02*
X1775063Y-779103D01*
X2203634Y-531484D02*
X2222682Y-531484D01*
X2222682Y-531484D02*
X2241729Y-541008D01*
X2241729Y-541008D02*
X2251253Y-550531D01*
X2251253Y-550531D02*
X2260777Y-569579D01*
X2260777Y-569579D02*
X2270301Y-607674D01*
X2270301Y-607674D02*
X2270301Y-655293D01*
X2270301Y-655293D02*
X2260777Y-693389D01*
X2260777Y-693389D02*
X2251253Y-712436D01*
X2251253Y-712436D02*
X2241729Y-721960D01*
X2241729Y-721960D02*
X2222682Y-731484D01*
X2222682Y-731484D02*
X2203634Y-731484D01*
X2203634Y-731484D02*
X2184587Y-721960D01*
X2184587Y-721960D02*
X2175063Y-712436D01*
X2175063Y-712436D02*
X2165539Y-693389D01*
X2165539Y-693389D02*
X2156015Y-655293D01*
X2156015Y-655293D02*
X2156015Y-607674D01*
X2156015Y-607674D02*
X2165539Y-569579D01*
X2165539Y-569579D02*
X2175063Y-550531D01*
X2175063Y-550531D02*
X2184587Y-541008D01*
X2184587Y-541008D02*
X2203634Y-531484D01*
X2356015Y-712436D02*
X2365539Y-721960D01*
X2365539Y-721960D02*
X2356015Y-731484D01*
X2356015Y-731484D02*
X2346491Y-721960D01*
X2346491Y-721960D02*
X2356015Y-712436D01*
X2356015Y-712436D02*
X2356015Y-731484D01*
X2489348Y-531484D02*
X2508396Y-531484D01*
X2508396Y-531484D02*
X2527444Y-541008D01*
X2527444Y-541008D02*
X2536968Y-550531D01*
X2536968Y-550531D02*
X2546491Y-569579D01*
X2546491Y-569579D02*
X2556015Y-607674D01*
X2556015Y-607674D02*
X2556015Y-655293D01*
X2556015Y-655293D02*
X2546491Y-693389D01*
X2546491Y-693389D02*
X2536968Y-712436D01*
X2536968Y-712436D02*
X2527444Y-721960D01*
X2527444Y-721960D02*
X2508396Y-731484D01*
X2508396Y-731484D02*
X2489348Y-731484D01*
X2489348Y-731484D02*
X2470301Y-721960D01*
X2470301Y-721960D02*
X2460777Y-712436D01*
X2460777Y-712436D02*
X2451253Y-693389D01*
X2451253Y-693389D02*
X2441729Y-655293D01*
X2441729Y-655293D02*
X2441729Y-607674D01*
X2441729Y-607674D02*
X2451253Y-569579D01*
X2451253Y-569579D02*
X2460777Y-550531D01*
X2460777Y-550531D02*
X2470301Y-541008D01*
X2470301Y-541008D02*
X2489348Y-531484D01*
X2746491Y-731484D02*
X2632206Y-731484D01*
X2689348Y-731484D02*
X2689348Y-531484D01*
X2689348Y-531484D02*
X2670301Y-560055D01*
X2670301Y-560055D02*
X2651253Y-579103D01*
X2651253Y-579103D02*
X2632206Y-588627D01*
X2936967Y-731484D02*
X2822682Y-731484D01*
X2879825Y-731484D02*
X2879825Y-531484D01*
X2879825Y-531484D02*
X2860777Y-560055D01*
X2860777Y-560055D02*
X2841729Y-579103D01*
X2841729Y-579103D02*
X2822682Y-588627D01*
X3051253Y-617198D02*
X3032206Y-607674D01*
X3032206Y-607674D02*
X3022682Y-598150D01*
X3022682Y-598150D02*
X3013158Y-579103D01*
X3013158Y-579103D02*
X3013158Y-569579D01*
X3013158Y-569579D02*
X3022682Y-550531D01*
X3022682Y-550531D02*
X3032206Y-541008D01*
X3032206Y-541008D02*
X3051253Y-531484D01*
X3051253Y-531484D02*
X3089348Y-531484D01*
X3089348Y-531484D02*
X3108396Y-541008D01*
X3108396Y-541008D02*
X3117920Y-550531D01*
X3117920Y-550531D02*
X3127444Y-569579D01*
X3127444Y-569579D02*
X3127444Y-579103D01*
X3127444Y-579103D02*
X3117920Y-598150D01*
X3117920Y-598150D02*
X3108396Y-607674D01*
X3108396Y-607674D02*
X3089348Y-617198D01*
X3089348Y-617198D02*
X3051253Y-617198D01*
X3051253Y-617198D02*
X3032206Y-626722D01*
X3032206Y-626722D02*
X3022682Y-636246D01*
X3022682Y-636246D02*
X3013158Y-655293D01*
X3013158Y-655293D02*
X3013158Y-693389D01*
X3013158Y-693389D02*
X3022682Y-712436D01*
X3022682Y-712436D02*
X3032206Y-721960D01*
X3032206Y-721960D02*
X3051253Y-731484D01*
X3051253Y-731484D02*
X3089348Y-731484D01*
X3089348Y-731484D02*
X3108396Y-721960D01*
X3108396Y-721960D02*
X3117920Y-712436D01*
X3117920Y-712436D02*
X3127444Y-693389D01*
X3127444Y-693389D02*
X3127444Y-655293D01*
X3127444Y-655293D02*
X3117920Y-636246D01*
X3117920Y-636246D02*
X3108396Y-626722D01*
X3108396Y-626722D02*
X3089348Y-617198D01*
X3203634Y-531484D02*
X3203634Y-569579D01*
X3279825Y-531484D02*
X3279825Y-569579D01*
X3575063Y-807674D02*
X3565539Y-798150D01*
X3565539Y-798150D02*
X3546491Y-769579D01*
X3546491Y-769579D02*
X3536968Y-750531D01*
X3536968Y-750531D02*
X3527444Y-721960D01*
X3527444Y-721960D02*
X3517920Y-674341D01*
X3517920Y-674341D02*
X3517920Y-636246D01*
X3517920Y-636246D02*
X3527444Y-588627D01*
X3527444Y-588627D02*
X3536968Y-560055D01*
X3536968Y-560055D02*
X3546491Y-541008D01*
X3546491Y-541008D02*
X3565539Y-512436D01*
X3565539Y-512436D02*
X3575063Y-502912D01*
X3632206Y-531484D02*
X3756015Y-531484D01*
X3756015Y-531484D02*
X3689348Y-607674D01*
X3689348Y-607674D02*
X3717920Y-607674D01*
X3717920Y-607674D02*
X3736968Y-617198D01*
X3736968Y-617198D02*
X3746491Y-626722D01*
X3746491Y-626722D02*
X3756015Y-645770D01*
X3756015Y-645770D02*
X3756015Y-693389D01*
X3756015Y-693389D02*
X3746491Y-712436D01*
X3746491Y-712436D02*
X3736968Y-721960D01*
X3736968Y-721960D02*
X3717920Y-731484D01*
X3717920Y-731484D02*
X3660777Y-731484D01*
X3660777Y-731484D02*
X3641729Y-721960D01*
X3641729Y-721960D02*
X3632206Y-712436D01*
X3832206Y-550531D02*
X3841729Y-541008D01*
X3841729Y-541008D02*
X3860777Y-531484D01*
X3860777Y-531484D02*
X3908396Y-531484D01*
X3908396Y-531484D02*
X3927444Y-541008D01*
X3927444Y-541008D02*
X3936968Y-550531D01*
X3936968Y-550531D02*
X3946491Y-569579D01*
X3946491Y-569579D02*
X3946491Y-588627D01*
X3946491Y-588627D02*
X3936968Y-617198D01*
X3936968Y-617198D02*
X3822682Y-731484D01*
X3822682Y-731484D02*
X3946491Y-731484D01*
X4184587Y-731484D02*
X4184587Y-531484D01*
X4270301Y-731484D02*
X4270301Y-626722D01*
X4270301Y-626722D02*
X4260777Y-607674D01*
X4260777Y-607674D02*
X4241730Y-598150D01*
X4241730Y-598150D02*
X4213158Y-598150D01*
X4213158Y-598150D02*
X4194110Y-607674D01*
X4194110Y-607674D02*
X4184587Y-617198D01*
X4394111Y-731484D02*
X4375063Y-721960D01*
X4375063Y-721960D02*
X4365539Y-712436D01*
X4365539Y-712436D02*
X4356015Y-693389D01*
X4356015Y-693389D02*
X4356015Y-636246D01*
X4356015Y-636246D02*
X4365539Y-617198D01*
X4365539Y-617198D02*
X4375063Y-607674D01*
X4375063Y-607674D02*
X4394111Y-598150D01*
X4394111Y-598150D02*
X4422682Y-598150D01*
X4422682Y-598150D02*
X4441730Y-607674D01*
X4441730Y-607674D02*
X4451253Y-617198D01*
X4451253Y-617198D02*
X4460777Y-636246D01*
X4460777Y-636246D02*
X4460777Y-693389D01*
X4460777Y-693389D02*
X4451253Y-712436D01*
X4451253Y-712436D02*
X4441730Y-721960D01*
X4441730Y-721960D02*
X4422682Y-731484D01*
X4422682Y-731484D02*
X4394111Y-731484D01*
X4575063Y-731484D02*
X4556015Y-721960D01*
X4556015Y-721960D02*
X4546492Y-702912D01*
X4546492Y-702912D02*
X4546492Y-531484D01*
X4727444Y-721960D02*
X4708396Y-731484D01*
X4708396Y-731484D02*
X4670301Y-731484D01*
X4670301Y-731484D02*
X4651253Y-721960D01*
X4651253Y-721960D02*
X4641730Y-702912D01*
X4641730Y-702912D02*
X4641730Y-626722D01*
X4641730Y-626722D02*
X4651253Y-607674D01*
X4651253Y-607674D02*
X4670301Y-598150D01*
X4670301Y-598150D02*
X4708396Y-598150D01*
X4708396Y-598150D02*
X4727444Y-607674D01*
X4727444Y-607674D02*
X4736968Y-626722D01*
X4736968Y-626722D02*
X4736968Y-645770D01*
X4736968Y-645770D02*
X4641730Y-664817D01*
X4813158Y-721960D02*
X4832206Y-731484D01*
X4832206Y-731484D02*
X4870301Y-731484D01*
X4870301Y-731484D02*
X4889349Y-721960D01*
X4889349Y-721960D02*
X4898873Y-702912D01*
X4898873Y-702912D02*
X4898873Y-693389D01*
X4898873Y-693389D02*
X4889349Y-674341D01*
X4889349Y-674341D02*
X4870301Y-664817D01*
X4870301Y-664817D02*
X4841730Y-664817D01*
X4841730Y-664817D02*
X4822682Y-655293D01*
X4822682Y-655293D02*
X4813158Y-636246D01*
X4813158Y-636246D02*
X4813158Y-626722D01*
X4813158Y-626722D02*
X4822682Y-607674D01*
X4822682Y-607674D02*
X4841730Y-598150D01*
X4841730Y-598150D02*
X4870301Y-598150D01*
X4870301Y-598150D02*
X4889349Y-607674D01*
X4965539Y-807674D02*
X4975063Y-798150D01*
X4975063Y-798150D02*
X4994111Y-769579D01*
X4994111Y-769579D02*
X5003634Y-750531D01*
X5003634Y-750531D02*
X5013158Y-721960D01*
X5013158Y-721960D02*
X5022682Y-674341D01*
X5022682Y-674341D02*
X5022682Y-636246D01*
X5022682Y-636246D02*
X5013158Y-588627D01*
X5013158Y-588627D02*
X5003634Y-560055D01*
X5003634Y-560055D02*
X4994111Y-541008D01*
X4994111Y-541008D02*
X4975063Y-512436D01*
X4975063Y-512436D02*
X4965539Y-502912D01*
D11*
X0Y-904000D02*
G75*
G03*
X0Y-904000I-40000J0D01*
G01*
D10*
X298872Y-795484D02*
X317920Y-795484D01*
X317920Y-795484D02*
X336967Y-805008D01*
X336967Y-805008D02*
X346491Y-814531D01*
X346491Y-814531D02*
X356015Y-833579D01*
X356015Y-833579D02*
X365539Y-871674D01*
X365539Y-871674D02*
X365539Y-919293D01*
X365539Y-919293D02*
X356015Y-957388D01*
X356015Y-957388D02*
X346491Y-976436D01*
X346491Y-976436D02*
X336967Y-985960D01*
X336967Y-985960D02*
X317920Y-995484D01*
X317920Y-995484D02*
X298872Y-995484D01*
X298872Y-995484D02*
X279824Y-985960D01*
X279824Y-985960D02*
X270301Y-976436D01*
X270301Y-976436D02*
X260777Y-957388D01*
X260777Y-957388D02*
X251253Y-919293D01*
X251253Y-919293D02*
X251253Y-871674D01*
X251253Y-871674D02*
X260777Y-833579D01*
X260777Y-833579D02*
X270301Y-814531D01*
X270301Y-814531D02*
X279824Y-805008D01*
X279824Y-805008D02*
X298872Y-795484D01*
X451253Y-976436D02*
X460777Y-985960D01*
X460777Y-985960D02*
X451253Y-995484D01*
X451253Y-995484D02*
X441729Y-985960D01*
X441729Y-985960D02*
X451253Y-976436D01*
X451253Y-976436D02*
X451253Y-995484D01*
X575063Y-881198D02*
X556015Y-871674D01*
X556015Y-871674D02*
X546491Y-862150D01*
X546491Y-862150D02*
X536967Y-843103D01*
X536967Y-843103D02*
X536967Y-833579D01*
X536967Y-833579D02*
X546491Y-814531D01*
X546491Y-814531D02*
X556015Y-805008D01*
X556015Y-805008D02*
X575063Y-795484D01*
X575063Y-795484D02*
X613158Y-795484D01*
X613158Y-795484D02*
X632205Y-805008D01*
X632205Y-805008D02*
X641729Y-814531D01*
X641729Y-814531D02*
X651253Y-833579D01*
X651253Y-833579D02*
X651253Y-843103D01*
X651253Y-843103D02*
X641729Y-862150D01*
X641729Y-862150D02*
X632205Y-871674D01*
X632205Y-871674D02*
X613158Y-881198D01*
X613158Y-881198D02*
X575063Y-881198D01*
X575063Y-881198D02*
X556015Y-890722D01*
X556015Y-890722D02*
X546491Y-900246D01*
X546491Y-900246D02*
X536967Y-919293D01*
X536967Y-919293D02*
X536967Y-957388D01*
X536967Y-957388D02*
X546491Y-976436D01*
X546491Y-976436D02*
X556015Y-985960D01*
X556015Y-985960D02*
X575063Y-995484D01*
X575063Y-995484D02*
X613158Y-995484D01*
X613158Y-995484D02*
X632205Y-985960D01*
X632205Y-985960D02*
X641729Y-976436D01*
X641729Y-976436D02*
X651253Y-957388D01*
X651253Y-957388D02*
X651253Y-919293D01*
X651253Y-919293D02*
X641729Y-900246D01*
X641729Y-900246D02*
X632205Y-890722D01*
X632205Y-890722D02*
X613158Y-881198D01*
X775062Y-795484D02*
X794110Y-795484D01*
X794110Y-795484D02*
X813158Y-805008D01*
X813158Y-805008D02*
X822682Y-814531D01*
X822682Y-814531D02*
X832205Y-833579D01*
X832205Y-833579D02*
X841729Y-871674D01*
X841729Y-871674D02*
X841729Y-919293D01*
X841729Y-919293D02*
X832205Y-957388D01*
X832205Y-957388D02*
X822682Y-976436D01*
X822682Y-976436D02*
X813158Y-985960D01*
X813158Y-985960D02*
X794110Y-995484D01*
X794110Y-995484D02*
X775062Y-995484D01*
X775062Y-995484D02*
X756015Y-985960D01*
X756015Y-985960D02*
X746491Y-976436D01*
X746491Y-976436D02*
X736967Y-957388D01*
X736967Y-957388D02*
X727443Y-919293D01*
X727443Y-919293D02*
X727443Y-871674D01*
X727443Y-871674D02*
X736967Y-833579D01*
X736967Y-833579D02*
X746491Y-814531D01*
X746491Y-814531D02*
X756015Y-805008D01*
X756015Y-805008D02*
X775062Y-795484D01*
X965539Y-795484D02*
X984586Y-795484D01*
X984586Y-795484D02*
X1003634Y-805008D01*
X1003634Y-805008D02*
X1013158Y-814531D01*
X1013158Y-814531D02*
X1022682Y-833579D01*
X1022682Y-833579D02*
X1032205Y-871674D01*
X1032205Y-871674D02*
X1032205Y-919293D01*
X1032205Y-919293D02*
X1022682Y-957388D01*
X1022682Y-957388D02*
X1013158Y-976436D01*
X1013158Y-976436D02*
X1003634Y-985960D01*
X1003634Y-985960D02*
X984586Y-995484D01*
X984586Y-995484D02*
X965539Y-995484D01*
X965539Y-995484D02*
X946491Y-985960D01*
X946491Y-985960D02*
X936967Y-976436D01*
X936967Y-976436D02*
X927443Y-957388D01*
X927443Y-957388D02*
X917920Y-919293D01*
X917920Y-919293D02*
X917920Y-871674D01*
X917920Y-871674D02*
X927443Y-833579D01*
X927443Y-833579D02*
X936967Y-814531D01*
X936967Y-814531D02*
X946491Y-805008D01*
X946491Y-805008D02*
X965539Y-795484D01*
X1117920Y-995484D02*
X1117920Y-862150D01*
X1117920Y-881198D02*
X1127444Y-871674D01*
X1127444Y-871674D02*
X1146491Y-862150D01*
X1146491Y-862150D02*
X1175063Y-862150D01*
X1175063Y-862150D02*
X1194110Y-871674D01*
X1194110Y-871674D02*
X1203634Y-890722D01*
X1203634Y-890722D02*
X1203634Y-995484D01*
X1203634Y-890722D02*
X1213158Y-871674D01*
X1213158Y-871674D02*
X1232205Y-862150D01*
X1232205Y-862150D02*
X1260777Y-862150D01*
X1260777Y-862150D02*
X1279825Y-871674D01*
X1279825Y-871674D02*
X1289348Y-890722D01*
X1289348Y-890722D02*
X1289348Y-995484D01*
X1384586Y-995484D02*
X1384586Y-862150D01*
X1384586Y-881198D02*
X1394110Y-871674D01*
X1394110Y-871674D02*
X1413158Y-862150D01*
X1413158Y-862150D02*
X1441729Y-862150D01*
X1441729Y-862150D02*
X1460777Y-871674D01*
X1460777Y-871674D02*
X1470301Y-890722D01*
X1470301Y-890722D02*
X1470301Y-995484D01*
X1470301Y-890722D02*
X1479824Y-871674D01*
X1479824Y-871674D02*
X1498872Y-862150D01*
X1498872Y-862150D02*
X1527443Y-862150D01*
X1527443Y-862150D02*
X1546491Y-871674D01*
X1546491Y-871674D02*
X1556015Y-890722D01*
X1556015Y-890722D02*
X1556015Y-995484D01*
X1946491Y-785960D02*
X1775063Y-1043103D01*
X2203634Y-795484D02*
X2222682Y-795484D01*
X2222682Y-795484D02*
X2241729Y-805008D01*
X2241729Y-805008D02*
X2251253Y-814531D01*
X2251253Y-814531D02*
X2260777Y-833579D01*
X2260777Y-833579D02*
X2270301Y-871674D01*
X2270301Y-871674D02*
X2270301Y-919293D01*
X2270301Y-919293D02*
X2260777Y-957388D01*
X2260777Y-957388D02*
X2251253Y-976436D01*
X2251253Y-976436D02*
X2241729Y-985960D01*
X2241729Y-985960D02*
X2222682Y-995484D01*
X2222682Y-995484D02*
X2203634Y-995484D01*
X2203634Y-995484D02*
X2184587Y-985960D01*
X2184587Y-985960D02*
X2175063Y-976436D01*
X2175063Y-976436D02*
X2165539Y-957388D01*
X2165539Y-957388D02*
X2156015Y-919293D01*
X2156015Y-919293D02*
X2156015Y-871674D01*
X2156015Y-871674D02*
X2165539Y-833579D01*
X2165539Y-833579D02*
X2175063Y-814531D01*
X2175063Y-814531D02*
X2184587Y-805008D01*
X2184587Y-805008D02*
X2203634Y-795484D01*
X2356015Y-976436D02*
X2365539Y-985960D01*
X2365539Y-985960D02*
X2356015Y-995484D01*
X2356015Y-995484D02*
X2346491Y-985960D01*
X2346491Y-985960D02*
X2356015Y-976436D01*
X2356015Y-976436D02*
X2356015Y-995484D01*
X2489348Y-795484D02*
X2508396Y-795484D01*
X2508396Y-795484D02*
X2527444Y-805008D01*
X2527444Y-805008D02*
X2536968Y-814531D01*
X2536968Y-814531D02*
X2546491Y-833579D01*
X2546491Y-833579D02*
X2556015Y-871674D01*
X2556015Y-871674D02*
X2556015Y-919293D01*
X2556015Y-919293D02*
X2546491Y-957388D01*
X2546491Y-957388D02*
X2536968Y-976436D01*
X2536968Y-976436D02*
X2527444Y-985960D01*
X2527444Y-985960D02*
X2508396Y-995484D01*
X2508396Y-995484D02*
X2489348Y-995484D01*
X2489348Y-995484D02*
X2470301Y-985960D01*
X2470301Y-985960D02*
X2460777Y-976436D01*
X2460777Y-976436D02*
X2451253Y-957388D01*
X2451253Y-957388D02*
X2441729Y-919293D01*
X2441729Y-919293D02*
X2441729Y-871674D01*
X2441729Y-871674D02*
X2451253Y-833579D01*
X2451253Y-833579D02*
X2460777Y-814531D01*
X2460777Y-814531D02*
X2470301Y-805008D01*
X2470301Y-805008D02*
X2489348Y-795484D01*
X2622682Y-795484D02*
X2746491Y-795484D01*
X2746491Y-795484D02*
X2679825Y-871674D01*
X2679825Y-871674D02*
X2708396Y-871674D01*
X2708396Y-871674D02*
X2727444Y-881198D01*
X2727444Y-881198D02*
X2736968Y-890722D01*
X2736968Y-890722D02*
X2746491Y-909769D01*
X2746491Y-909769D02*
X2746491Y-957388D01*
X2746491Y-957388D02*
X2736968Y-976436D01*
X2736968Y-976436D02*
X2727444Y-985960D01*
X2727444Y-985960D02*
X2708396Y-995484D01*
X2708396Y-995484D02*
X2651253Y-995484D01*
X2651253Y-995484D02*
X2632206Y-985960D01*
X2632206Y-985960D02*
X2622682Y-976436D01*
X2936967Y-995484D02*
X2822682Y-995484D01*
X2879825Y-995484D02*
X2879825Y-795484D01*
X2879825Y-795484D02*
X2860777Y-824055D01*
X2860777Y-824055D02*
X2841729Y-843103D01*
X2841729Y-843103D02*
X2822682Y-852627D01*
X3117920Y-795484D02*
X3022682Y-795484D01*
X3022682Y-795484D02*
X3013158Y-890722D01*
X3013158Y-890722D02*
X3022682Y-881198D01*
X3022682Y-881198D02*
X3041729Y-871674D01*
X3041729Y-871674D02*
X3089348Y-871674D01*
X3089348Y-871674D02*
X3108396Y-881198D01*
X3108396Y-881198D02*
X3117920Y-890722D01*
X3117920Y-890722D02*
X3127444Y-909769D01*
X3127444Y-909769D02*
X3127444Y-957388D01*
X3127444Y-957388D02*
X3117920Y-976436D01*
X3117920Y-976436D02*
X3108396Y-985960D01*
X3108396Y-985960D02*
X3089348Y-995484D01*
X3089348Y-995484D02*
X3041729Y-995484D01*
X3041729Y-995484D02*
X3022682Y-985960D01*
X3022682Y-985960D02*
X3013158Y-976436D01*
X3203634Y-795484D02*
X3203634Y-833579D01*
X3279825Y-795484D02*
X3279825Y-833579D01*
X3575063Y-1071674D02*
X3565539Y-1062150D01*
X3565539Y-1062150D02*
X3546491Y-1033579D01*
X3546491Y-1033579D02*
X3536968Y-1014531D01*
X3536968Y-1014531D02*
X3527444Y-985960D01*
X3527444Y-985960D02*
X3517920Y-938341D01*
X3517920Y-938341D02*
X3517920Y-900246D01*
X3517920Y-900246D02*
X3527444Y-852627D01*
X3527444Y-852627D02*
X3536968Y-824055D01*
X3536968Y-824055D02*
X3546491Y-805008D01*
X3546491Y-805008D02*
X3565539Y-776436D01*
X3565539Y-776436D02*
X3575063Y-766912D01*
X3756015Y-995484D02*
X3641729Y-995484D01*
X3698872Y-995484D02*
X3698872Y-795484D01*
X3698872Y-795484D02*
X3679825Y-824055D01*
X3679825Y-824055D02*
X3660777Y-843103D01*
X3660777Y-843103D02*
X3641729Y-852627D01*
X3822682Y-795484D02*
X3946491Y-795484D01*
X3946491Y-795484D02*
X3879825Y-871674D01*
X3879825Y-871674D02*
X3908396Y-871674D01*
X3908396Y-871674D02*
X3927444Y-881198D01*
X3927444Y-881198D02*
X3936968Y-890722D01*
X3936968Y-890722D02*
X3946491Y-909769D01*
X3946491Y-909769D02*
X3946491Y-957388D01*
X3946491Y-957388D02*
X3936968Y-976436D01*
X3936968Y-976436D02*
X3927444Y-985960D01*
X3927444Y-985960D02*
X3908396Y-995484D01*
X3908396Y-995484D02*
X3851253Y-995484D01*
X3851253Y-995484D02*
X3832206Y-985960D01*
X3832206Y-985960D02*
X3822682Y-976436D01*
X4127444Y-795484D02*
X4032206Y-795484D01*
X4032206Y-795484D02*
X4022682Y-890722D01*
X4022682Y-890722D02*
X4032206Y-881198D01*
X4032206Y-881198D02*
X4051253Y-871674D01*
X4051253Y-871674D02*
X4098872Y-871674D01*
X4098872Y-871674D02*
X4117920Y-881198D01*
X4117920Y-881198D02*
X4127444Y-890722D01*
X4127444Y-890722D02*
X4136968Y-909769D01*
X4136968Y-909769D02*
X4136968Y-957388D01*
X4136968Y-957388D02*
X4127444Y-976436D01*
X4127444Y-976436D02*
X4117920Y-985960D01*
X4117920Y-985960D02*
X4098872Y-995484D01*
X4098872Y-995484D02*
X4051253Y-995484D01*
X4051253Y-995484D02*
X4032206Y-985960D01*
X4032206Y-985960D02*
X4022682Y-976436D01*
X4375063Y-995484D02*
X4375063Y-795484D01*
X4460777Y-995484D02*
X4460777Y-890722D01*
X4460777Y-890722D02*
X4451253Y-871674D01*
X4451253Y-871674D02*
X4432206Y-862150D01*
X4432206Y-862150D02*
X4403634Y-862150D01*
X4403634Y-862150D02*
X4384587Y-871674D01*
X4384587Y-871674D02*
X4375063Y-881198D01*
X4584587Y-995484D02*
X4565539Y-985960D01*
X4565539Y-985960D02*
X4556015Y-976436D01*
X4556015Y-976436D02*
X4546492Y-957388D01*
X4546492Y-957388D02*
X4546492Y-900246D01*
X4546492Y-900246D02*
X4556015Y-881198D01*
X4556015Y-881198D02*
X4565539Y-871674D01*
X4565539Y-871674D02*
X4584587Y-862150D01*
X4584587Y-862150D02*
X4613158Y-862150D01*
X4613158Y-862150D02*
X4632206Y-871674D01*
X4632206Y-871674D02*
X4641730Y-881198D01*
X4641730Y-881198D02*
X4651253Y-900246D01*
X4651253Y-900246D02*
X4651253Y-957388D01*
X4651253Y-957388D02*
X4641730Y-976436D01*
X4641730Y-976436D02*
X4632206Y-985960D01*
X4632206Y-985960D02*
X4613158Y-995484D01*
X4613158Y-995484D02*
X4584587Y-995484D01*
X4765539Y-995484D02*
X4746492Y-985960D01*
X4746492Y-985960D02*
X4736968Y-966912D01*
X4736968Y-966912D02*
X4736968Y-795484D01*
X4917920Y-985960D02*
X4898873Y-995484D01*
X4898873Y-995484D02*
X4860777Y-995484D01*
X4860777Y-995484D02*
X4841730Y-985960D01*
X4841730Y-985960D02*
X4832206Y-966912D01*
X4832206Y-966912D02*
X4832206Y-890722D01*
X4832206Y-890722D02*
X4841730Y-871674D01*
X4841730Y-871674D02*
X4860777Y-862150D01*
X4860777Y-862150D02*
X4898873Y-862150D01*
X4898873Y-862150D02*
X4917920Y-871674D01*
X4917920Y-871674D02*
X4927444Y-890722D01*
X4927444Y-890722D02*
X4927444Y-909769D01*
X4927444Y-909769D02*
X4832206Y-928817D01*
X5003634Y-985960D02*
X5022682Y-995484D01*
X5022682Y-995484D02*
X5060777Y-995484D01*
X5060777Y-995484D02*
X5079825Y-985960D01*
X5079825Y-985960D02*
X5089349Y-966912D01*
X5089349Y-966912D02*
X5089349Y-957388D01*
X5089349Y-957388D02*
X5079825Y-938341D01*
X5079825Y-938341D02*
X5060777Y-928817D01*
X5060777Y-928817D02*
X5032206Y-928817D01*
X5032206Y-928817D02*
X5013158Y-919293D01*
X5013158Y-919293D02*
X5003634Y-900246D01*
X5003634Y-900246D02*
X5003634Y-890722D01*
X5003634Y-890722D02*
X5013158Y-871674D01*
X5013158Y-871674D02*
X5032206Y-862150D01*
X5032206Y-862150D02*
X5060777Y-862150D01*
X5060777Y-862150D02*
X5079825Y-871674D01*
X5156015Y-1071674D02*
X5165539Y-1062150D01*
X5165539Y-1062150D02*
X5184587Y-1033579D01*
X5184587Y-1033579D02*
X5194111Y-1014531D01*
X5194111Y-1014531D02*
X5203634Y-985960D01*
X5203634Y-985960D02*
X5213158Y-938341D01*
X5213158Y-938341D02*
X5213158Y-900246D01*
X5213158Y-900246D02*
X5203634Y-852627D01*
X5203634Y-852627D02*
X5194111Y-824055D01*
X5194111Y-824055D02*
X5184587Y-805008D01*
X5184587Y-805008D02*
X5165539Y-776436D01*
X5165539Y-776436D02*
X5156015Y-766912D01*
X-100000Y-1068000D02*
X-100000Y-1268000D01*
X-200000Y-1168000D02*
X0Y-1168000D01*
X346491Y-1059484D02*
X308396Y-1059484D01*
X308396Y-1059484D02*
X289348Y-1069008D01*
X289348Y-1069008D02*
X279824Y-1078531D01*
X279824Y-1078531D02*
X260777Y-1107103D01*
X260777Y-1107103D02*
X251253Y-1145198D01*
X251253Y-1145198D02*
X251253Y-1221389D01*
X251253Y-1221389D02*
X260777Y-1240436D01*
X260777Y-1240436D02*
X270301Y-1249960D01*
X270301Y-1249960D02*
X289348Y-1259484D01*
X289348Y-1259484D02*
X327444Y-1259484D01*
X327444Y-1259484D02*
X346491Y-1249960D01*
X346491Y-1249960D02*
X356015Y-1240436D01*
X356015Y-1240436D02*
X365539Y-1221389D01*
X365539Y-1221389D02*
X365539Y-1173770D01*
X365539Y-1173770D02*
X356015Y-1154722D01*
X356015Y-1154722D02*
X346491Y-1145198D01*
X346491Y-1145198D02*
X327444Y-1135674D01*
X327444Y-1135674D02*
X289348Y-1135674D01*
X289348Y-1135674D02*
X270301Y-1145198D01*
X270301Y-1145198D02*
X260777Y-1154722D01*
X260777Y-1154722D02*
X251253Y-1173770D01*
X451253Y-1240436D02*
X460777Y-1249960D01*
X460777Y-1249960D02*
X451253Y-1259484D01*
X451253Y-1259484D02*
X441729Y-1249960D01*
X441729Y-1249960D02*
X451253Y-1240436D01*
X451253Y-1240436D02*
X451253Y-1259484D01*
X641729Y-1059484D02*
X546491Y-1059484D01*
X546491Y-1059484D02*
X536967Y-1154722D01*
X536967Y-1154722D02*
X546491Y-1145198D01*
X546491Y-1145198D02*
X565539Y-1135674D01*
X565539Y-1135674D02*
X613158Y-1135674D01*
X613158Y-1135674D02*
X632205Y-1145198D01*
X632205Y-1145198D02*
X641729Y-1154722D01*
X641729Y-1154722D02*
X651253Y-1173770D01*
X651253Y-1173770D02*
X651253Y-1221389D01*
X651253Y-1221389D02*
X641729Y-1240436D01*
X641729Y-1240436D02*
X632205Y-1249960D01*
X632205Y-1249960D02*
X613158Y-1259484D01*
X613158Y-1259484D02*
X565539Y-1259484D01*
X565539Y-1259484D02*
X546491Y-1249960D01*
X546491Y-1249960D02*
X536967Y-1240436D01*
X775062Y-1059484D02*
X794110Y-1059484D01*
X794110Y-1059484D02*
X813158Y-1069008D01*
X813158Y-1069008D02*
X822682Y-1078531D01*
X822682Y-1078531D02*
X832205Y-1097579D01*
X832205Y-1097579D02*
X841729Y-1135674D01*
X841729Y-1135674D02*
X841729Y-1183293D01*
X841729Y-1183293D02*
X832205Y-1221389D01*
X832205Y-1221389D02*
X822682Y-1240436D01*
X822682Y-1240436D02*
X813158Y-1249960D01*
X813158Y-1249960D02*
X794110Y-1259484D01*
X794110Y-1259484D02*
X775062Y-1259484D01*
X775062Y-1259484D02*
X756015Y-1249960D01*
X756015Y-1249960D02*
X746491Y-1240436D01*
X746491Y-1240436D02*
X736967Y-1221389D01*
X736967Y-1221389D02*
X727443Y-1183293D01*
X727443Y-1183293D02*
X727443Y-1135674D01*
X727443Y-1135674D02*
X736967Y-1097579D01*
X736967Y-1097579D02*
X746491Y-1078531D01*
X746491Y-1078531D02*
X756015Y-1069008D01*
X756015Y-1069008D02*
X775062Y-1059484D01*
X965539Y-1059484D02*
X984586Y-1059484D01*
X984586Y-1059484D02*
X1003634Y-1069008D01*
X1003634Y-1069008D02*
X1013158Y-1078531D01*
X1013158Y-1078531D02*
X1022682Y-1097579D01*
X1022682Y-1097579D02*
X1032205Y-1135674D01*
X1032205Y-1135674D02*
X1032205Y-1183293D01*
X1032205Y-1183293D02*
X1022682Y-1221389D01*
X1022682Y-1221389D02*
X1013158Y-1240436D01*
X1013158Y-1240436D02*
X1003634Y-1249960D01*
X1003634Y-1249960D02*
X984586Y-1259484D01*
X984586Y-1259484D02*
X965539Y-1259484D01*
X965539Y-1259484D02*
X946491Y-1249960D01*
X946491Y-1249960D02*
X936967Y-1240436D01*
X936967Y-1240436D02*
X927443Y-1221389D01*
X927443Y-1221389D02*
X917920Y-1183293D01*
X917920Y-1183293D02*
X917920Y-1135674D01*
X917920Y-1135674D02*
X927443Y-1097579D01*
X927443Y-1097579D02*
X936967Y-1078531D01*
X936967Y-1078531D02*
X946491Y-1069008D01*
X946491Y-1069008D02*
X965539Y-1059484D01*
X1117920Y-1259484D02*
X1117920Y-1126150D01*
X1117920Y-1145198D02*
X1127444Y-1135674D01*
X1127444Y-1135674D02*
X1146491Y-1126150D01*
X1146491Y-1126150D02*
X1175063Y-1126150D01*
X1175063Y-1126150D02*
X1194110Y-1135674D01*
X1194110Y-1135674D02*
X1203634Y-1154722D01*
X1203634Y-1154722D02*
X1203634Y-1259484D01*
X1203634Y-1154722D02*
X1213158Y-1135674D01*
X1213158Y-1135674D02*
X1232205Y-1126150D01*
X1232205Y-1126150D02*
X1260777Y-1126150D01*
X1260777Y-1126150D02*
X1279825Y-1135674D01*
X1279825Y-1135674D02*
X1289348Y-1154722D01*
X1289348Y-1154722D02*
X1289348Y-1259484D01*
X1384586Y-1259484D02*
X1384586Y-1126150D01*
X1384586Y-1145198D02*
X1394110Y-1135674D01*
X1394110Y-1135674D02*
X1413158Y-1126150D01*
X1413158Y-1126150D02*
X1441729Y-1126150D01*
X1441729Y-1126150D02*
X1460777Y-1135674D01*
X1460777Y-1135674D02*
X1470301Y-1154722D01*
X1470301Y-1154722D02*
X1470301Y-1259484D01*
X1470301Y-1154722D02*
X1479824Y-1135674D01*
X1479824Y-1135674D02*
X1498872Y-1126150D01*
X1498872Y-1126150D02*
X1527443Y-1126150D01*
X1527443Y-1126150D02*
X1546491Y-1135674D01*
X1546491Y-1135674D02*
X1556015Y-1154722D01*
X1556015Y-1154722D02*
X1556015Y-1259484D01*
X1946491Y-1049960D02*
X1775063Y-1307103D01*
X2203634Y-1059484D02*
X2222682Y-1059484D01*
X2222682Y-1059484D02*
X2241729Y-1069008D01*
X2241729Y-1069008D02*
X2251253Y-1078531D01*
X2251253Y-1078531D02*
X2260777Y-1097579D01*
X2260777Y-1097579D02*
X2270301Y-1135674D01*
X2270301Y-1135674D02*
X2270301Y-1183293D01*
X2270301Y-1183293D02*
X2260777Y-1221389D01*
X2260777Y-1221389D02*
X2251253Y-1240436D01*
X2251253Y-1240436D02*
X2241729Y-1249960D01*
X2241729Y-1249960D02*
X2222682Y-1259484D01*
X2222682Y-1259484D02*
X2203634Y-1259484D01*
X2203634Y-1259484D02*
X2184587Y-1249960D01*
X2184587Y-1249960D02*
X2175063Y-1240436D01*
X2175063Y-1240436D02*
X2165539Y-1221389D01*
X2165539Y-1221389D02*
X2156015Y-1183293D01*
X2156015Y-1183293D02*
X2156015Y-1135674D01*
X2156015Y-1135674D02*
X2165539Y-1097579D01*
X2165539Y-1097579D02*
X2175063Y-1078531D01*
X2175063Y-1078531D02*
X2184587Y-1069008D01*
X2184587Y-1069008D02*
X2203634Y-1059484D01*
X2356015Y-1240436D02*
X2365539Y-1249960D01*
X2365539Y-1249960D02*
X2356015Y-1259484D01*
X2356015Y-1259484D02*
X2346491Y-1249960D01*
X2346491Y-1249960D02*
X2356015Y-1240436D01*
X2356015Y-1240436D02*
X2356015Y-1259484D01*
X2441729Y-1078531D02*
X2451253Y-1069008D01*
X2451253Y-1069008D02*
X2470301Y-1059484D01*
X2470301Y-1059484D02*
X2517920Y-1059484D01*
X2517920Y-1059484D02*
X2536968Y-1069008D01*
X2536968Y-1069008D02*
X2546491Y-1078531D01*
X2546491Y-1078531D02*
X2556015Y-1097579D01*
X2556015Y-1097579D02*
X2556015Y-1116627D01*
X2556015Y-1116627D02*
X2546491Y-1145198D01*
X2546491Y-1145198D02*
X2432206Y-1259484D01*
X2432206Y-1259484D02*
X2556015Y-1259484D01*
X2736968Y-1059484D02*
X2641729Y-1059484D01*
X2641729Y-1059484D02*
X2632206Y-1154722D01*
X2632206Y-1154722D02*
X2641729Y-1145198D01*
X2641729Y-1145198D02*
X2660777Y-1135674D01*
X2660777Y-1135674D02*
X2708396Y-1135674D01*
X2708396Y-1135674D02*
X2727444Y-1145198D01*
X2727444Y-1145198D02*
X2736968Y-1154722D01*
X2736968Y-1154722D02*
X2746491Y-1173770D01*
X2746491Y-1173770D02*
X2746491Y-1221389D01*
X2746491Y-1221389D02*
X2736968Y-1240436D01*
X2736968Y-1240436D02*
X2727444Y-1249960D01*
X2727444Y-1249960D02*
X2708396Y-1259484D01*
X2708396Y-1259484D02*
X2660777Y-1259484D01*
X2660777Y-1259484D02*
X2641729Y-1249960D01*
X2641729Y-1249960D02*
X2632206Y-1240436D01*
X2927444Y-1059484D02*
X2832206Y-1059484D01*
X2832206Y-1059484D02*
X2822682Y-1154722D01*
X2822682Y-1154722D02*
X2832206Y-1145198D01*
X2832206Y-1145198D02*
X2851253Y-1135674D01*
X2851253Y-1135674D02*
X2898872Y-1135674D01*
X2898872Y-1135674D02*
X2917920Y-1145198D01*
X2917920Y-1145198D02*
X2927444Y-1154722D01*
X2927444Y-1154722D02*
X2936967Y-1173770D01*
X2936967Y-1173770D02*
X2936967Y-1221389D01*
X2936967Y-1221389D02*
X2927444Y-1240436D01*
X2927444Y-1240436D02*
X2917920Y-1249960D01*
X2917920Y-1249960D02*
X2898872Y-1259484D01*
X2898872Y-1259484D02*
X2851253Y-1259484D01*
X2851253Y-1259484D02*
X2832206Y-1249960D01*
X2832206Y-1249960D02*
X2822682Y-1240436D01*
X3032206Y-1259484D02*
X3070301Y-1259484D01*
X3070301Y-1259484D02*
X3089348Y-1249960D01*
X3089348Y-1249960D02*
X3098872Y-1240436D01*
X3098872Y-1240436D02*
X3117920Y-1211865D01*
X3117920Y-1211865D02*
X3127444Y-1173770D01*
X3127444Y-1173770D02*
X3127444Y-1097579D01*
X3127444Y-1097579D02*
X3117920Y-1078531D01*
X3117920Y-1078531D02*
X3108396Y-1069008D01*
X3108396Y-1069008D02*
X3089348Y-1059484D01*
X3089348Y-1059484D02*
X3051253Y-1059484D01*
X3051253Y-1059484D02*
X3032206Y-1069008D01*
X3032206Y-1069008D02*
X3022682Y-1078531D01*
X3022682Y-1078531D02*
X3013158Y-1097579D01*
X3013158Y-1097579D02*
X3013158Y-1145198D01*
X3013158Y-1145198D02*
X3022682Y-1164246D01*
X3022682Y-1164246D02*
X3032206Y-1173770D01*
X3032206Y-1173770D02*
X3051253Y-1183293D01*
X3051253Y-1183293D02*
X3089348Y-1183293D01*
X3089348Y-1183293D02*
X3108396Y-1173770D01*
X3108396Y-1173770D02*
X3117920Y-1164246D01*
X3117920Y-1164246D02*
X3127444Y-1145198D01*
X3203634Y-1059484D02*
X3203634Y-1097579D01*
X3279825Y-1059484D02*
X3279825Y-1097579D01*
X3575063Y-1335674D02*
X3565539Y-1326150D01*
X3565539Y-1326150D02*
X3546491Y-1297579D01*
X3546491Y-1297579D02*
X3536968Y-1278531D01*
X3536968Y-1278531D02*
X3527444Y-1249960D01*
X3527444Y-1249960D02*
X3517920Y-1202341D01*
X3517920Y-1202341D02*
X3517920Y-1164246D01*
X3517920Y-1164246D02*
X3527444Y-1116627D01*
X3527444Y-1116627D02*
X3536968Y-1088055D01*
X3536968Y-1088055D02*
X3546491Y-1069008D01*
X3546491Y-1069008D02*
X3565539Y-1040436D01*
X3565539Y-1040436D02*
X3575063Y-1030912D01*
X3756015Y-1259484D02*
X3641729Y-1259484D01*
X3698872Y-1259484D02*
X3698872Y-1059484D01*
X3698872Y-1059484D02*
X3679825Y-1088055D01*
X3679825Y-1088055D02*
X3660777Y-1107103D01*
X3660777Y-1107103D02*
X3641729Y-1116627D01*
X3994110Y-1259484D02*
X3994110Y-1059484D01*
X4079825Y-1259484D02*
X4079825Y-1154722D01*
X4079825Y-1154722D02*
X4070301Y-1135674D01*
X4070301Y-1135674D02*
X4051253Y-1126150D01*
X4051253Y-1126150D02*
X4022682Y-1126150D01*
X4022682Y-1126150D02*
X4003634Y-1135674D01*
X4003634Y-1135674D02*
X3994110Y-1145198D01*
X4203634Y-1259484D02*
X4184587Y-1249960D01*
X4184587Y-1249960D02*
X4175063Y-1240436D01*
X4175063Y-1240436D02*
X4165539Y-1221389D01*
X4165539Y-1221389D02*
X4165539Y-1164246D01*
X4165539Y-1164246D02*
X4175063Y-1145198D01*
X4175063Y-1145198D02*
X4184587Y-1135674D01*
X4184587Y-1135674D02*
X4203634Y-1126150D01*
X4203634Y-1126150D02*
X4232206Y-1126150D01*
X4232206Y-1126150D02*
X4251253Y-1135674D01*
X4251253Y-1135674D02*
X4260777Y-1145198D01*
X4260777Y-1145198D02*
X4270301Y-1164246D01*
X4270301Y-1164246D02*
X4270301Y-1221389D01*
X4270301Y-1221389D02*
X4260777Y-1240436D01*
X4260777Y-1240436D02*
X4251253Y-1249960D01*
X4251253Y-1249960D02*
X4232206Y-1259484D01*
X4232206Y-1259484D02*
X4203634Y-1259484D01*
X4384587Y-1259484D02*
X4365539Y-1249960D01*
X4365539Y-1249960D02*
X4356015Y-1230912D01*
X4356015Y-1230912D02*
X4356015Y-1059484D01*
X4536968Y-1249960D02*
X4517920Y-1259484D01*
X4517920Y-1259484D02*
X4479825Y-1259484D01*
X4479825Y-1259484D02*
X4460777Y-1249960D01*
X4460777Y-1249960D02*
X4451253Y-1230912D01*
X4451253Y-1230912D02*
X4451253Y-1154722D01*
X4451253Y-1154722D02*
X4460777Y-1135674D01*
X4460777Y-1135674D02*
X4479825Y-1126150D01*
X4479825Y-1126150D02*
X4517920Y-1126150D01*
X4517920Y-1126150D02*
X4536968Y-1135674D01*
X4536968Y-1135674D02*
X4546492Y-1154722D01*
X4546492Y-1154722D02*
X4546492Y-1173770D01*
X4546492Y-1173770D02*
X4451253Y-1192817D01*
X4613158Y-1335674D02*
X4622682Y-1326150D01*
X4622682Y-1326150D02*
X4641730Y-1297579D01*
X4641730Y-1297579D02*
X4651253Y-1278531D01*
X4651253Y-1278531D02*
X4660777Y-1249960D01*
X4660777Y-1249960D02*
X4670301Y-1202341D01*
X4670301Y-1202341D02*
X4670301Y-1164246D01*
X4670301Y-1164246D02*
X4660777Y-1116627D01*
X4660777Y-1116627D02*
X4651253Y-1088055D01*
X4651253Y-1088055D02*
X4641730Y-1069008D01*
X4641730Y-1069008D02*
X4622682Y-1040436D01*
X4622682Y-1040436D02*
X4613158Y-1030912D01*
M02*
