M48
; DRILL file {KiCad 7.0.10+dfsg-1} date Tue 16 Jan 2024 01:03:38 PM CET
; FORMAT={-:-/ absolute / inch / decimal}
; #@! TF.CreationDate,2024-01-16T13:03:38+01:00
; #@! TF.GenerationSoftware,Kicad,Pcbnew,7.0.10+dfsg-1
; #@! TF.FileFunction,Plated,1,2,PTH
FMAT,2
INCH
; #@! TA.AperFunction,Plated,PTH,ViaDrill
T1C0.0118
; #@! TA.AperFunction,Plated,PTH,ComponentDrill
T2C0.0315
; #@! TA.AperFunction,Plated,PTH,ComponentDrill
T3C0.2559
%
G90
G05
T1
X3.71Y-5.32
X3.75Y-5.775
X3.8Y-6.55
X3.9Y-6.55
X3.96Y-6.44
X4.08Y-6.57
X4.15Y-5.9
X4.16Y-5.32
X4.25Y-6.175
X4.3Y-6.2
X4.35Y-4.4
X4.355Y-6.15
X4.4Y-5.88
X4.4Y-6.2
X4.465Y-5.155
X4.5519Y-4.7031
X4.6Y-6.07
X4.65Y-5.825
X4.7Y-6.575
X4.8Y-6.575
X4.9Y-6.575
X4.95Y-5.85
X5.0Y-5.53
X5.095Y-4.23
X5.1Y-4.575
X5.23Y-5.29
X5.23Y-5.6
X5.63Y-6.22
X5.655Y-4.385
X5.7Y-4.725
X5.7Y-6.175
X5.8Y-6.3
T2
X3.75Y-5.9
X3.75Y-6.3
X3.76Y-3.8
X3.76Y-4.1
X3.76Y-4.35
X3.76Y-4.5
X3.76Y-4.8
X3.76Y-5.1
X3.76Y-5.4
X3.8566Y-4.975
X3.86Y-3.8
X3.86Y-4.1
X3.86Y-4.5
X3.86Y-4.8
X3.86Y-5.1
X3.86Y-5.4
X3.96Y-3.8
X3.96Y-4.1
X3.96Y-4.5
X3.96Y-4.8
X3.96Y-5.1
X3.96Y-5.4
X4.03Y-5.9
X4.03Y-6.3
X4.0534Y-4.975
X4.06Y-3.8
X4.06Y-4.1
X4.06Y-4.5
X4.06Y-4.8
X4.06Y-5.1
X4.06Y-5.4
X4.16Y-3.8
X4.16Y-4.1
X4.16Y-4.35
X4.16Y-4.5
X4.16Y-4.8
X4.16Y-5.1
X4.16Y-5.4
X4.25Y-5.7
X4.25Y-6.3
X4.26Y-3.8
X4.26Y-4.1
X4.26Y-4.5
X4.26Y-4.8
X4.26Y-5.1
X4.26Y-5.4
X4.35Y-5.7
X4.35Y-6.3
X4.36Y-3.8
X4.36Y-4.1
X4.36Y-4.5
X4.36Y-4.8
X4.36Y-5.1
X4.36Y-5.4
X4.45Y-5.7
X4.45Y-6.3
X4.46Y-4.5
X4.46Y-4.8
X4.55Y-3.8
X4.55Y-3.95
X4.55Y-4.1
X4.55Y-4.2947
X4.55Y-5.7
X4.55Y-6.3
X4.65Y-4.3947
X4.65Y-4.5
X4.65Y-4.9
X4.65Y-5.7
X4.65Y-6.3
X4.75Y-4.2947
X4.75Y-5.7
X4.75Y-6.3
X4.8Y-4.7031
X4.8Y-4.9
X4.85Y-5.7
X4.85Y-6.3
X4.95Y-3.8
X4.95Y-3.95
X4.95Y-4.1
X4.95Y-4.5
X4.95Y-4.9
X4.95Y-5.7
X4.95Y-6.3
X4.965Y-5.0
X5.05Y-4.375
X5.05Y-5.7
X5.05Y-6.3
X5.08Y-5.1
X5.08Y-5.4
X5.15Y-5.7
X5.15Y-6.3
X5.18Y-4.5
X5.18Y-4.8
X5.18Y-5.1
X5.18Y-5.4
X5.25Y-5.7
X5.25Y-6.3
X5.28Y-4.5
X5.28Y-4.8
X5.28Y-5.1
X5.28Y-5.4
X5.35Y-5.7
X5.35Y-6.3
X5.365Y-5.0
X5.38Y-4.5
X5.38Y-4.8
X5.38Y-5.1
X5.38Y-5.4
X5.4Y-4.9
X5.45Y-4.375
X5.45Y-5.7
X5.45Y-6.3
X5.48Y-4.5
X5.48Y-4.8
X5.48Y-5.1
X5.48Y-5.4
X5.55Y-5.7
X5.55Y-6.3
X5.5516Y-4.375
X5.58Y-4.5
X5.58Y-4.8
X5.58Y-5.1
X5.58Y-5.4
X5.68Y-4.5
X5.68Y-4.8
X5.68Y-5.1
X5.68Y-5.4
X5.7484Y-4.375
X5.78Y-4.5
X5.78Y-4.8
X5.78Y-5.1
X5.78Y-5.4
X5.8Y-4.9
X5.8Y-5.9016
X5.8Y-6.0984
T3
X4.75Y-5.2251
M30
